<svg width="480" height="792" viewBox="0 0 480 792" fill="none" xmlns="http://www.w3.org/2000/svg">
<rect width="480" height="704" fill="white"/>
<rect width="480" height="192" fill="#F4F4F5"/>
<path d="M152 136C152 87.3989 191.399 48 240 48C288.601 48 328 87.3989 328 136C328 184.601 288.601 224 240 224C191.399 224 152 184.601 152 136Z" fill="white"/>
<g clip-path="url(#clip0_13948_4985)">
<path d="M160 136C160 91.8172 195.817 56 240 56C284.183 56 320 91.8172 320 136C320 180.183 284.183 216 240 216C195.817 216 160 180.183 160 136Z" fill="#F4F4F5"/>
<path d="M282.317 130.688C281.662 93.9308 258.7 80.8333 238.995 80.8333C219.289 80.8333 196.328 93.9308 195.672 130.688C190.846 133.803 190.245 139.193 190.245 143.125C190.245 148.314 195.055 159.938 201.89 161.823L202.107 162.354C205.054 169.683 212.892 189.167 238.995 189.167C265.098 189.167 272.935 169.683 275.888 162.354L276.104 161.823C282.94 159.933 287.75 148.314 287.75 143.125C287.75 139.193 287.149 133.803 282.317 130.688Z" fill="#A0A0AB"/>
<path d="M274.208 156.667C273.698 156.667 273.199 156.812 272.767 157.083C272.335 157.354 271.988 157.741 271.765 158.2C271.442 158.902 271.141 159.613 270.861 160.334C268.039 167.343 261.441 183.75 238.994 183.75C216.548 183.75 209.95 167.343 207.128 160.334C206.847 159.614 206.546 158.902 206.224 158.2C206.003 157.74 205.657 157.353 205.226 157.082C204.795 156.81 204.296 156.666 203.786 156.667C200.384 156.667 195.661 147.269 195.661 143.125C195.661 137.324 197.508 135.672 199.502 134.751C199.972 134.534 200.37 134.188 200.65 133.752C200.929 133.316 201.078 132.809 201.078 132.292C201.078 98.3454 220.664 86.25 238.994 86.25C257.324 86.25 276.911 98.3454 276.911 132.292C276.911 132.809 277.06 133.316 277.339 133.752C277.619 134.188 278.017 134.534 278.487 134.751C280.492 135.672 282.333 137.324 282.333 143.125C282.333 147.269 277.604 156.667 274.208 156.667Z" fill="white" fill-opacity="0.5"/>
<path d="M199.16 146.624C199.16 140.823 201.007 139.171 203.001 138.25C203.471 138.033 203.869 137.686 204.148 137.251C204.427 136.815 204.576 136.308 204.577 135.791C204.577 101.845 224.164 89.7492 242.494 89.7492C250.824 89.7492 259.399 92.2896 266.294 98.2046C258.96 89.7708 248.809 86.25 238.994 86.25C220.664 86.25 201.078 98.3454 201.078 132.292C201.078 132.809 200.929 133.316 200.65 133.752C200.37 134.188 199.972 134.534 199.502 134.751C197.508 135.672 195.661 137.324 195.661 143.125C195.661 146.9 199.572 154.955 202.844 156.374C200.807 153.281 199.16 149.056 199.16 146.624Z" fill="white" fill-opacity="0.3"/>
<path d="M278.726 134.875C279.332 136.121 279.733 137.876 279.733 140.525C279.733 144.669 275.01 154.067 271.608 154.067C271.098 154.067 270.599 154.212 270.167 154.483C269.735 154.754 269.388 155.141 269.165 155.6C268.842 156.302 268.541 157.013 268.261 157.734C265.439 164.743 258.841 181.15 236.395 181.15C226.504 181.15 219.695 177.96 214.923 173.794C219.722 179.157 227.132 183.75 238.995 183.75C261.441 183.75 268.039 167.343 270.861 160.334C271.218 159.445 271.516 158.72 271.765 158.2C271.987 157.74 272.334 157.352 272.766 157.081C273.198 156.81 273.698 156.666 274.208 156.667C277.61 156.667 282.333 147.269 282.333 143.125C282.333 137.557 280.632 135.823 278.726 134.875Z" fill="black" fill-opacity="0.1"/>
<path d="M220.036 140.417C223.028 140.417 225.453 137.992 225.453 135C225.453 132.008 223.028 129.583 220.036 129.583C217.045 129.583 214.62 132.008 214.62 135C214.62 137.992 217.045 140.417 220.036 140.417Z" fill="black" fill-opacity="0.7"/>
<path d="M257.953 140.417C260.944 140.417 263.369 137.992 263.369 135C263.369 132.008 260.944 129.583 257.953 129.583C254.961 129.583 252.536 132.008 252.536 135C252.536 137.992 254.961 140.417 257.953 140.417Z" fill="black" fill-opacity="0.7"/>
</g>
<path d="M206.296 276.104C205.464 274.424 204.84 272.72 204.424 270.992C204.024 269.248 203.824 267.48 203.824 265.688C203.824 264.488 203.912 263.304 204.088 262.136C204.28 260.968 204.552 259.816 204.904 258.68C205.272 257.528 205.736 256.392 206.296 255.272C206.392 255.08 206.52 254.968 206.68 254.936C206.84 254.888 206.984 254.896 207.112 254.96C207.256 255.024 207.36 255.136 207.424 255.296C207.504 255.44 207.496 255.632 207.4 255.872C206.952 256.944 206.576 258.024 206.272 259.112C205.984 260.2 205.76 261.288 205.6 262.376C205.456 263.464 205.384 264.568 205.384 265.688C205.384 266.792 205.456 267.896 205.6 269C205.76 270.088 205.992 271.168 206.296 272.24C206.6 273.328 206.968 274.416 207.4 275.504C207.496 275.744 207.504 275.936 207.424 276.08C207.36 276.24 207.256 276.344 207.112 276.392C206.984 276.456 206.84 276.464 206.68 276.416C206.52 276.384 206.392 276.28 206.296 276.104ZM211.427 272.144C211.203 272.144 211.027 272.08 210.899 271.952C210.787 271.824 210.731 271.64 210.731 271.4V255.704C210.731 255.448 210.787 255.256 210.899 255.128C211.011 255 211.163 254.936 211.355 254.936C211.563 254.936 211.715 254.968 211.811 255.032C211.907 255.096 212.011 255.216 212.123 255.392L223.163 270.248H222.611V255.656C222.611 255.416 222.667 255.24 222.779 255.128C222.907 255 223.083 254.936 223.307 254.936C223.515 254.936 223.675 255 223.787 255.128C223.915 255.24 223.979 255.416 223.979 255.656V271.4C223.979 271.64 223.923 271.824 223.811 271.952C223.715 272.08 223.571 272.144 223.379 272.144C223.203 272.144 223.059 272.104 222.947 272.024C222.835 271.96 222.715 271.848 222.587 271.688L211.571 256.832H212.099V271.4C212.099 271.64 212.035 271.824 211.907 271.952C211.795 272.08 211.635 272.144 211.427 272.144ZM231.715 272.192C230.931 272.192 230.227 272.04 229.603 271.736C228.995 271.432 228.507 271.016 228.139 270.488C227.787 269.96 227.611 269.368 227.611 268.712C227.611 267.848 227.827 267.168 228.259 266.672C228.691 266.176 229.419 265.832 230.443 265.64C231.467 265.432 232.875 265.328 234.667 265.328H235.699V266.408H234.691C233.251 266.408 232.123 266.472 231.307 266.6C230.507 266.712 229.947 266.928 229.627 267.248C229.307 267.568 229.147 268.016 229.147 268.592C229.147 269.312 229.395 269.896 229.891 270.344C230.387 270.792 231.059 271.016 231.907 271.016C232.595 271.016 233.195 270.856 233.707 270.536C234.235 270.2 234.651 269.744 234.955 269.168C235.259 268.592 235.411 267.936 235.411 267.2V264.464C235.411 263.392 235.195 262.616 234.763 262.136C234.331 261.64 233.643 261.392 232.699 261.392C232.091 261.392 231.499 261.472 230.923 261.632C230.363 261.792 229.763 262.048 229.123 262.4C228.947 262.496 228.787 262.528 228.643 262.496C228.515 262.464 228.411 262.4 228.331 262.304C228.267 262.208 228.219 262.096 228.187 261.968C228.171 261.824 228.195 261.688 228.259 261.56C228.323 261.432 228.435 261.328 228.595 261.248C229.267 260.88 229.947 260.608 230.635 260.432C231.339 260.24 232.019 260.144 232.675 260.144C233.619 260.144 234.395 260.304 235.003 260.624C235.627 260.944 236.083 261.424 236.371 262.064C236.675 262.704 236.827 263.528 236.827 264.536V271.4C236.827 271.64 236.771 271.824 236.659 271.952C236.547 272.08 236.379 272.144 236.155 272.144C235.931 272.144 235.755 272.08 235.627 271.952C235.499 271.824 235.435 271.64 235.435 271.4V269.192H235.675C235.531 269.816 235.275 270.352 234.907 270.8C234.539 271.248 234.083 271.592 233.539 271.832C232.995 272.072 232.387 272.192 231.715 272.192ZM241.446 272.144C241.206 272.144 241.022 272.08 240.894 271.952C240.766 271.824 240.702 271.64 240.702 271.4V260.96C240.702 260.704 240.766 260.512 240.894 260.384C241.022 260.256 241.206 260.192 241.446 260.192C241.67 260.192 241.838 260.256 241.95 260.384C242.078 260.512 242.142 260.704 242.142 260.96V263.24L241.878 263.072C242.166 262.128 242.654 261.408 243.342 260.912C244.03 260.4 244.854 260.144 245.814 260.144C246.838 260.144 247.654 260.392 248.262 260.888C248.886 261.384 249.294 262.128 249.486 263.12H249.126C249.398 262.224 249.902 261.504 250.638 260.96C251.39 260.416 252.27 260.144 253.278 260.144C254.142 260.144 254.854 260.312 255.414 260.648C255.99 260.984 256.422 261.488 256.71 262.16C256.998 262.816 257.142 263.648 257.142 264.656V271.4C257.142 271.64 257.078 271.824 256.95 271.952C256.822 272.08 256.638 272.144 256.398 272.144C256.174 272.144 255.998 272.08 255.87 271.952C255.742 271.824 255.678 271.64 255.678 271.4V264.776C255.678 263.608 255.47 262.76 255.054 262.232C254.654 261.688 253.974 261.416 253.014 261.416C251.99 261.416 251.174 261.776 250.566 262.496C249.958 263.2 249.654 264.16 249.654 265.376V271.4C249.654 271.64 249.59 271.824 249.462 271.952C249.334 272.08 249.158 272.144 248.934 272.144C248.694 272.144 248.51 272.08 248.382 271.952C248.254 271.824 248.19 271.64 248.19 271.4V264.776C248.19 263.608 247.982 262.76 247.566 262.232C247.166 261.688 246.494 261.416 245.55 261.416C244.51 261.416 243.686 261.776 243.078 262.496C242.47 263.2 242.166 264.16 242.166 265.376V271.4C242.166 271.896 241.926 272.144 241.446 272.144ZM266.039 272.192C264.839 272.192 263.807 271.952 262.943 271.472C262.079 270.992 261.415 270.304 260.951 269.408C260.487 268.512 260.255 267.448 260.255 266.216C260.255 265 260.487 263.944 260.951 263.048C261.415 262.136 262.055 261.424 262.871 260.912C263.703 260.4 264.655 260.144 265.727 260.144C266.511 260.144 267.199 260.28 267.791 260.552C268.399 260.808 268.911 261.184 269.327 261.68C269.759 262.16 270.087 262.752 270.311 263.456C270.535 264.144 270.647 264.928 270.647 265.808C270.647 266.032 270.583 266.2 270.455 266.312C270.343 266.424 270.183 266.48 269.975 266.48H261.311V265.4H269.735L269.351 265.712C269.351 264.784 269.215 264 268.943 263.36C268.671 262.704 268.263 262.2 267.719 261.848C267.191 261.496 266.535 261.32 265.751 261.32C264.871 261.32 264.127 261.528 263.519 261.944C262.911 262.344 262.455 262.904 262.151 263.624C261.847 264.328 261.695 265.144 261.695 266.072V266.192C261.695 267.728 262.071 268.912 262.823 269.744C263.575 270.56 264.631 270.968 265.991 270.968C266.583 270.968 267.151 270.888 267.695 270.728C268.255 270.568 268.799 270.296 269.327 269.912C269.487 269.8 269.639 269.744 269.783 269.744C269.943 269.744 270.071 269.784 270.167 269.864C270.279 269.944 270.351 270.048 270.383 270.176C270.431 270.288 270.423 270.416 270.359 270.56C270.311 270.688 270.207 270.808 270.047 270.92C269.535 271.336 268.919 271.656 268.199 271.88C267.479 272.088 266.759 272.192 266.039 272.192ZM273.685 276.104C273.605 276.28 273.485 276.384 273.325 276.416C273.181 276.464 273.029 276.456 272.869 276.392C272.725 276.344 272.621 276.24 272.557 276.08C272.493 275.936 272.501 275.744 272.581 275.504C273.045 274.416 273.421 273.328 273.709 272.24C274.013 271.168 274.237 270.088 274.381 269C274.541 267.896 274.621 266.792 274.621 265.688C274.621 264.568 274.541 263.464 274.381 262.376C274.221 261.288 273.989 260.208 273.685 259.136C273.397 258.048 273.029 256.96 272.581 255.872C272.501 255.632 272.493 255.44 272.557 255.296C272.621 255.136 272.725 255.024 272.869 254.96C273.013 254.896 273.165 254.888 273.325 254.936C273.485 254.968 273.605 255.08 273.685 255.272C274.549 256.936 275.181 258.64 275.581 260.384C275.981 262.112 276.181 263.88 276.181 265.688C276.181 266.888 276.085 268.08 275.893 269.264C275.717 270.432 275.445 271.592 275.077 272.744C274.725 273.896 274.261 275.016 273.685 276.104Z" fill="#26272B"/>
<path d="M188.952 315.736C188.398 314.616 187.982 313.48 187.704 312.328C187.438 311.165 187.304 309.987 187.304 308.792C187.304 307.992 187.363 307.203 187.48 306.424C187.608 305.645 187.79 304.877 188.024 304.12C188.27 303.352 188.579 302.595 188.952 301.848C189.016 301.72 189.102 301.645 189.208 301.624C189.315 301.592 189.411 301.597 189.496 301.64C189.592 301.683 189.662 301.757 189.704 301.864C189.758 301.96 189.752 302.088 189.688 302.248C189.39 302.963 189.139 303.683 188.936 304.408C188.744 305.133 188.595 305.859 188.488 306.584C188.392 307.309 188.344 308.045 188.344 308.792C188.344 309.528 188.392 310.264 188.488 311C188.595 311.725 188.75 312.445 188.952 313.16C189.155 313.885 189.4 314.611 189.688 315.336C189.752 315.496 189.758 315.624 189.704 315.72C189.662 315.827 189.592 315.896 189.496 315.928C189.411 315.971 189.315 315.976 189.208 315.944C189.102 315.923 189.016 315.853 188.952 315.736ZM192.454 313C192.283 313 192.15 312.952 192.054 312.856C191.958 312.76 191.91 312.621 191.91 312.44V302.28C191.91 302.099 191.958 301.96 192.054 301.864C192.15 301.768 192.283 301.72 192.454 301.72H198.502C198.651 301.72 198.763 301.757 198.838 301.832C198.912 301.907 198.95 302.008 198.95 302.136C198.95 302.285 198.912 302.397 198.838 302.472C198.763 302.536 198.651 302.568 198.502 302.568H192.87V306.856H198.182C198.331 306.856 198.443 306.893 198.517 306.968C198.592 307.032 198.63 307.133 198.63 307.272C198.63 307.411 198.592 307.517 198.517 307.592C198.443 307.667 198.331 307.704 198.182 307.704H192.87V312.152H198.502C198.651 312.152 198.763 312.189 198.838 312.264C198.912 312.328 198.95 312.429 198.95 312.568C198.95 312.707 198.912 312.813 198.838 312.888C198.763 312.963 198.651 313 198.502 313H192.454ZM201.464 313.096C201.304 313.096 201.182 313.053 201.096 312.968C201.011 312.883 200.968 312.76 200.968 312.6V305.64C200.968 305.469 201.011 305.341 201.096 305.256C201.182 305.171 201.304 305.128 201.464 305.128C201.614 305.128 201.726 305.171 201.8 305.256C201.886 305.341 201.928 305.469 201.928 305.64V307.16L201.752 307.048C201.944 306.419 202.27 305.939 202.728 305.608C203.187 305.267 203.736 305.096 204.376 305.096C205.059 305.096 205.603 305.261 206.008 305.592C206.424 305.923 206.696 306.419 206.824 307.08H206.584C206.766 306.483 207.102 306.003 207.592 305.64C208.094 305.277 208.68 305.096 209.352 305.096C209.928 305.096 210.403 305.208 210.776 305.432C211.16 305.656 211.448 305.992 211.64 306.44C211.832 306.877 211.928 307.432 211.928 308.104V312.6C211.928 312.76 211.886 312.883 211.8 312.968C211.715 313.053 211.592 313.096 211.432 313.096C211.283 313.096 211.166 313.053 211.08 312.968C210.995 312.883 210.952 312.76 210.952 312.6V308.184C210.952 307.405 210.814 306.84 210.536 306.488C210.27 306.125 209.816 305.944 209.176 305.944C208.494 305.944 207.95 306.184 207.544 306.664C207.139 307.133 206.936 307.773 206.936 308.584V312.6C206.936 312.76 206.894 312.883 206.808 312.968C206.723 313.053 206.606 313.096 206.456 313.096C206.296 313.096 206.174 313.053 206.088 312.968C206.003 312.883 205.96 312.76 205.96 312.6V308.184C205.96 307.405 205.822 306.84 205.544 306.488C205.278 306.125 204.83 305.944 204.2 305.944C203.507 305.944 202.958 306.184 202.552 306.664C202.147 307.133 201.944 307.773 201.944 308.584V312.6C201.944 312.931 201.784 313.096 201.464 313.096ZM216.883 313.128C216.36 313.128 215.891 313.027 215.475 312.824C215.07 312.621 214.744 312.344 214.499 311.992C214.264 311.64 214.147 311.245 214.147 310.808C214.147 310.232 214.291 309.779 214.579 309.448C214.867 309.117 215.352 308.888 216.035 308.76C216.718 308.621 217.656 308.552 218.851 308.552H219.539V309.272H218.867C217.907 309.272 217.155 309.315 216.611 309.4C216.078 309.475 215.704 309.619 215.491 309.832C215.278 310.045 215.171 310.344 215.171 310.728C215.171 311.208 215.336 311.597 215.667 311.896C215.998 312.195 216.446 312.344 217.011 312.344C217.47 312.344 217.87 312.237 218.211 312.024C218.563 311.8 218.84 311.496 219.043 311.112C219.246 310.728 219.347 310.291 219.347 309.8V307.976C219.347 307.261 219.203 306.744 218.915 306.424C218.627 306.093 218.168 305.928 217.539 305.928C217.134 305.928 216.739 305.981 216.355 306.088C215.982 306.195 215.582 306.365 215.155 306.6C215.038 306.664 214.931 306.685 214.835 306.664C214.75 306.643 214.68 306.6 214.627 306.536C214.584 306.472 214.552 306.397 214.531 306.312C214.52 306.216 214.536 306.125 214.579 306.04C214.622 305.955 214.696 305.885 214.803 305.832C215.251 305.587 215.704 305.405 216.163 305.288C216.632 305.16 217.086 305.096 217.523 305.096C218.152 305.096 218.67 305.203 219.075 305.416C219.491 305.629 219.795 305.949 219.987 306.376C220.19 306.803 220.291 307.352 220.291 308.024V312.6C220.291 312.76 220.254 312.883 220.179 312.968C220.104 313.053 219.992 313.096 219.843 313.096C219.694 313.096 219.576 313.053 219.491 312.968C219.406 312.883 219.363 312.76 219.363 312.6V311.128H219.523C219.427 311.544 219.256 311.901 219.011 312.2C218.766 312.499 218.462 312.728 218.099 312.888C217.736 313.048 217.331 313.128 216.883 313.128ZM223.339 313.064C223.179 313.064 223.056 313.016 222.971 312.92C222.885 312.824 222.843 312.696 222.843 312.536V305.688C222.843 305.517 222.885 305.389 222.971 305.304C223.056 305.219 223.179 305.176 223.339 305.176C223.488 305.176 223.605 305.219 223.691 305.304C223.776 305.389 223.819 305.517 223.819 305.688V312.536C223.819 312.696 223.776 312.824 223.691 312.92C223.616 313.016 223.499 313.064 223.339 313.064ZM223.339 303.24C223.115 303.24 222.939 303.181 222.811 303.064C222.693 302.947 222.635 302.781 222.635 302.568C222.635 302.355 222.693 302.195 222.811 302.088C222.939 301.971 223.115 301.912 223.339 301.912C223.563 301.912 223.733 301.971 223.851 302.088C223.979 302.195 224.043 302.355 224.043 302.568C224.043 302.781 223.979 302.947 223.851 303.064C223.733 303.181 223.563 303.24 223.339 303.24ZM228.629 313.128C227.915 313.128 227.36 312.904 226.965 312.456C226.581 312.008 226.389 311.373 226.389 310.552V302.12C226.389 301.949 226.432 301.827 226.517 301.752C226.603 301.667 226.725 301.624 226.885 301.624C227.035 301.624 227.152 301.667 227.237 301.752C227.323 301.827 227.365 301.949 227.365 302.12V310.44C227.365 311.059 227.488 311.523 227.733 311.832C227.979 312.131 228.336 312.28 228.805 312.28C228.912 312.28 229.003 312.275 229.077 312.264C229.152 312.253 229.227 312.248 229.301 312.248C229.397 312.237 229.467 312.259 229.509 312.312C229.563 312.355 229.589 312.451 229.589 312.6C229.589 312.749 229.552 312.861 229.477 312.936C229.403 313.011 229.28 313.064 229.109 313.096C229.035 313.107 228.955 313.112 228.869 313.112C228.795 313.123 228.715 313.128 228.629 313.128ZM237.383 313.128C236.86 313.128 236.391 313.027 235.975 312.824C235.57 312.621 235.244 312.344 234.999 311.992C234.764 311.64 234.647 311.245 234.647 310.808C234.647 310.232 234.791 309.779 235.079 309.448C235.367 309.117 235.852 308.888 236.535 308.76C237.218 308.621 238.156 308.552 239.351 308.552H240.039V309.272H239.367C238.407 309.272 237.655 309.315 237.111 309.4C236.578 309.475 236.204 309.619 235.991 309.832C235.778 310.045 235.671 310.344 235.671 310.728C235.671 311.208 235.836 311.597 236.167 311.896C236.498 312.195 236.946 312.344 237.511 312.344C237.97 312.344 238.37 312.237 238.711 312.024C239.063 311.8 239.34 311.496 239.543 311.112C239.746 310.728 239.847 310.291 239.847 309.8V307.976C239.847 307.261 239.703 306.744 239.415 306.424C239.127 306.093 238.668 305.928 238.039 305.928C237.634 305.928 237.239 305.981 236.855 306.088C236.482 306.195 236.082 306.365 235.655 306.6C235.538 306.664 235.431 306.685 235.335 306.664C235.25 306.643 235.18 306.6 235.127 306.536C235.084 306.472 235.052 306.397 235.031 306.312C235.02 306.216 235.036 306.125 235.079 306.04C235.122 305.955 235.196 305.885 235.303 305.832C235.751 305.587 236.204 305.405 236.663 305.288C237.132 305.16 237.586 305.096 238.023 305.096C238.652 305.096 239.17 305.203 239.575 305.416C239.991 305.629 240.295 305.949 240.487 306.376C240.69 306.803 240.791 307.352 240.791 308.024V312.6C240.791 312.76 240.754 312.883 240.679 312.968C240.604 313.053 240.492 313.096 240.343 313.096C240.194 313.096 240.076 313.053 239.991 312.968C239.906 312.883 239.863 312.76 239.863 312.6V311.128H240.023C239.927 311.544 239.756 311.901 239.511 312.2C239.266 312.499 238.962 312.728 238.599 312.888C238.236 313.048 237.831 313.128 237.383 313.128ZM246.303 313.128C245.609 313.128 245.001 312.968 244.479 312.648C243.967 312.317 243.567 311.853 243.279 311.256C243.001 310.648 242.863 309.933 242.863 309.112C242.863 308.291 243.001 307.581 243.279 306.984C243.556 306.387 243.951 305.923 244.463 305.592C244.985 305.261 245.599 305.096 246.303 305.096C247.028 305.096 247.647 305.283 248.159 305.656C248.671 306.029 249.012 306.531 249.183 307.16H249.007V302.12C249.007 301.949 249.049 301.827 249.135 301.752C249.22 301.667 249.337 301.624 249.487 301.624C249.647 301.624 249.769 301.667 249.855 301.752C249.94 301.827 249.983 301.949 249.983 302.12V312.6C249.983 312.76 249.94 312.883 249.855 312.968C249.769 313.053 249.652 313.096 249.503 313.096C249.343 313.096 249.22 313.053 249.135 312.968C249.049 312.883 249.007 312.76 249.007 312.6V310.952L249.183 311.064C249.012 311.693 248.671 312.195 248.159 312.568C247.647 312.941 247.028 313.128 246.303 313.128ZM246.431 312.312C246.964 312.312 247.423 312.189 247.807 311.944C248.201 311.688 248.5 311.32 248.703 310.84C248.916 310.36 249.023 309.784 249.023 309.112C249.023 308.099 248.788 307.315 248.319 306.76C247.86 306.205 247.231 305.928 246.431 305.928C245.908 305.928 245.449 306.056 245.055 306.312C244.671 306.557 244.372 306.92 244.159 307.4C243.956 307.869 243.855 308.44 243.855 309.112C243.855 310.136 244.089 310.925 244.559 311.48C245.028 312.035 245.652 312.312 246.431 312.312ZM255.506 313.128C254.812 313.128 254.204 312.968 253.682 312.648C253.17 312.317 252.77 311.853 252.482 311.256C252.204 310.648 252.066 309.933 252.066 309.112C252.066 308.291 252.204 307.581 252.482 306.984C252.759 306.387 253.154 305.923 253.666 305.592C254.188 305.261 254.802 305.096 255.506 305.096C256.231 305.096 256.85 305.283 257.362 305.656C257.874 306.029 258.215 306.531 258.386 307.16H258.21V302.12C258.21 301.949 258.252 301.827 258.338 301.752C258.423 301.667 258.54 301.624 258.69 301.624C258.85 301.624 258.972 301.667 259.058 301.752C259.143 301.827 259.186 301.949 259.186 302.12V312.6C259.186 312.76 259.143 312.883 259.058 312.968C258.972 313.053 258.855 313.096 258.706 313.096C258.546 313.096 258.423 313.053 258.338 312.968C258.252 312.883 258.21 312.76 258.21 312.6V310.952L258.386 311.064C258.215 311.693 257.874 312.195 257.362 312.568C256.85 312.941 256.231 313.128 255.506 313.128ZM255.634 312.312C256.167 312.312 256.626 312.189 257.01 311.944C257.404 311.688 257.703 311.32 257.906 310.84C258.119 310.36 258.226 309.784 258.226 309.112C258.226 308.099 257.991 307.315 257.522 306.76C257.063 306.205 256.434 305.928 255.634 305.928C255.111 305.928 254.652 306.056 254.258 306.312C253.874 306.557 253.575 306.92 253.362 307.4C253.159 307.869 253.058 308.44 253.058 309.112C253.058 310.136 253.292 310.925 253.762 311.48C254.231 312.035 254.855 312.312 255.634 312.312ZM262.245 313.096C262.085 313.096 261.962 313.053 261.877 312.968C261.791 312.883 261.749 312.76 261.749 312.6V305.64C261.749 305.469 261.791 305.341 261.877 305.256C261.962 305.171 262.085 305.128 262.245 305.128C262.394 305.128 262.506 305.171 262.581 305.256C262.666 305.341 262.709 305.469 262.709 305.64V307.064H262.549C262.741 306.435 263.082 305.949 263.573 305.608C264.074 305.267 264.671 305.091 265.365 305.08C265.493 305.069 265.599 305.096 265.685 305.16C265.77 305.224 265.813 305.325 265.813 305.464C265.823 305.613 265.791 305.731 265.717 305.816C265.642 305.891 265.519 305.939 265.349 305.96L265.125 305.976C264.367 306.051 263.781 306.301 263.365 306.728C262.949 307.155 262.741 307.731 262.741 308.456V312.6C262.741 312.76 262.698 312.883 262.613 312.968C262.538 313.053 262.415 313.096 262.245 313.096ZM270.5 313.128C269.7 313.128 269.012 312.968 268.436 312.648C267.86 312.328 267.417 311.869 267.108 311.272C266.798 310.675 266.644 309.965 266.644 309.144C266.644 308.333 266.798 307.629 267.108 307.032C267.417 306.424 267.844 305.949 268.388 305.608C268.942 305.267 269.577 305.096 270.292 305.096C270.814 305.096 271.273 305.187 271.668 305.368C272.073 305.539 272.414 305.789 272.692 306.12C272.98 306.44 273.198 306.835 273.348 307.304C273.497 307.763 273.572 308.285 273.572 308.872C273.572 309.021 273.529 309.133 273.444 309.208C273.369 309.283 273.262 309.32 273.124 309.32H267.348V308.6H272.964L272.708 308.808C272.708 308.189 272.617 307.667 272.436 307.24C272.254 306.803 271.982 306.467 271.62 306.232C271.268 305.997 270.83 305.88 270.308 305.88C269.721 305.88 269.225 306.019 268.82 306.296C268.414 306.563 268.11 306.936 267.908 307.416C267.705 307.885 267.604 308.429 267.604 309.048V309.128C267.604 310.152 267.854 310.941 268.356 311.496C268.857 312.04 269.561 312.312 270.468 312.312C270.862 312.312 271.241 312.259 271.604 312.152C271.977 312.045 272.34 311.864 272.692 311.608C272.798 311.533 272.9 311.496 272.996 311.496C273.102 311.496 273.188 311.523 273.252 311.576C273.326 311.629 273.374 311.699 273.396 311.784C273.428 311.859 273.422 311.944 273.38 312.04C273.348 312.125 273.278 312.205 273.172 312.28C272.83 312.557 272.42 312.771 271.94 312.92C271.46 313.059 270.98 313.128 270.5 313.128ZM278.089 313.128C277.609 313.128 277.129 313.064 276.649 312.936C276.18 312.808 275.732 312.589 275.305 312.28C275.22 312.227 275.161 312.163 275.129 312.088C275.108 312.003 275.103 311.917 275.113 311.832C275.135 311.747 275.172 311.677 275.225 311.624C275.289 311.56 275.364 311.523 275.449 311.512C275.535 311.501 275.625 311.528 275.721 311.592C276.137 311.869 276.543 312.061 276.937 312.168C277.332 312.275 277.727 312.328 278.121 312.328C278.772 312.328 279.268 312.205 279.609 311.96C279.951 311.715 280.121 311.384 280.121 310.968C280.121 310.627 280.009 310.365 279.785 310.184C279.572 309.992 279.22 309.837 278.729 309.72L277.337 309.4C276.665 309.251 276.169 309.011 275.849 308.68C275.529 308.339 275.369 307.901 275.369 307.368C275.369 306.909 275.487 306.509 275.721 306.168C275.967 305.827 276.308 305.565 276.745 305.384C277.193 305.192 277.705 305.096 278.281 305.096C278.751 305.096 279.199 305.165 279.625 305.304C280.052 305.443 280.425 305.656 280.745 305.944C280.831 306.008 280.884 306.083 280.905 306.168C280.937 306.253 280.937 306.339 280.905 306.424C280.884 306.499 280.841 306.563 280.777 306.616C280.713 306.669 280.639 306.696 280.553 306.696C280.468 306.696 280.377 306.664 280.281 306.6C279.972 306.365 279.647 306.195 279.305 306.088C278.964 305.971 278.617 305.912 278.265 305.912C277.647 305.912 277.167 306.04 276.825 306.296C276.495 306.552 276.329 306.899 276.329 307.336C276.329 307.667 276.431 307.933 276.633 308.136C276.847 308.339 277.177 308.493 277.625 308.6L279.017 308.92C279.711 309.08 280.228 309.32 280.569 309.64C280.911 309.949 281.081 310.371 281.081 310.904C281.081 311.587 280.809 312.131 280.265 312.536C279.732 312.931 279.007 313.128 278.089 313.128ZM285.73 313.128C285.25 313.128 284.77 313.064 284.29 312.936C283.821 312.808 283.373 312.589 282.946 312.28C282.861 312.227 282.802 312.163 282.77 312.088C282.749 312.003 282.743 311.917 282.754 311.832C282.775 311.747 282.813 311.677 282.866 311.624C282.93 311.56 283.005 311.523 283.09 311.512C283.175 311.501 283.266 311.528 283.362 311.592C283.778 311.869 284.183 312.061 284.578 312.168C284.973 312.275 285.367 312.328 285.762 312.328C286.413 312.328 286.909 312.205 287.25 311.96C287.591 311.715 287.762 311.384 287.762 310.968C287.762 310.627 287.65 310.365 287.426 310.184C287.213 309.992 286.861 309.837 286.37 309.72L284.978 309.4C284.306 309.251 283.81 309.011 283.49 308.68C283.17 308.339 283.01 307.901 283.01 307.368C283.01 306.909 283.127 306.509 283.362 306.168C283.607 305.827 283.949 305.565 284.386 305.384C284.834 305.192 285.346 305.096 285.922 305.096C286.391 305.096 286.839 305.165 287.266 305.304C287.693 305.443 288.066 305.656 288.386 305.944C288.471 306.008 288.525 306.083 288.546 306.168C288.578 306.253 288.578 306.339 288.546 306.424C288.525 306.499 288.482 306.563 288.418 306.616C288.354 306.669 288.279 306.696 288.194 306.696C288.109 306.696 288.018 306.664 287.922 306.6C287.613 306.365 287.287 306.195 286.946 306.088C286.605 305.971 286.258 305.912 285.906 305.912C285.287 305.912 284.807 306.04 284.466 306.296C284.135 306.552 283.97 306.899 283.97 307.336C283.97 307.667 284.071 307.933 284.274 308.136C284.487 308.339 284.818 308.493 285.266 308.6L286.658 308.92C287.351 309.08 287.869 309.32 288.21 309.64C288.551 309.949 288.722 310.371 288.722 310.904C288.722 311.587 288.45 312.131 287.906 312.536C287.373 312.931 286.647 313.128 285.73 313.128ZM291.035 315.736C290.981 315.853 290.901 315.923 290.795 315.944C290.699 315.976 290.597 315.971 290.491 315.928C290.395 315.896 290.325 315.827 290.283 315.72C290.24 315.624 290.245 315.496 290.299 315.336C290.608 314.611 290.859 313.885 291.051 313.16C291.253 312.445 291.403 311.725 291.499 311C291.605 310.264 291.659 309.528 291.659 308.792C291.659 308.045 291.605 307.309 291.499 306.584C291.392 305.859 291.237 305.139 291.035 304.424C290.843 303.699 290.597 302.973 290.299 302.248C290.245 302.088 290.24 301.96 290.283 301.864C290.325 301.757 290.395 301.683 290.491 301.64C290.587 301.597 290.688 301.592 290.795 301.624C290.901 301.645 290.981 301.72 291.035 301.848C291.611 302.957 292.032 304.093 292.299 305.256C292.565 306.408 292.699 307.587 292.699 308.792C292.699 309.592 292.635 310.387 292.507 311.176C292.389 311.955 292.208 312.728 291.963 313.496C291.728 314.264 291.419 315.011 291.035 315.736Z" fill="#26272B"/>
<path d="M225.913 361.096C225.764 361.096 225.646 361.053 225.561 360.968C225.476 360.872 225.433 360.744 225.433 360.584V350.232C225.433 350.061 225.476 349.933 225.561 349.848C225.657 349.763 225.78 349.72 225.929 349.72H229.689C230.884 349.72 231.801 349.997 232.441 350.552C233.081 351.107 233.401 351.896 233.401 352.92C233.401 353.581 233.257 354.152 232.969 354.632C232.681 355.101 232.254 355.459 231.689 355.704C231.134 355.949 230.468 356.072 229.689 356.072L229.865 355.864H230.089C230.494 355.864 230.846 355.971 231.145 356.184C231.454 356.397 231.732 356.744 231.977 357.224L233.673 360.376C233.748 360.493 233.78 360.611 233.769 360.728C233.769 360.835 233.732 360.925 233.657 361C233.582 361.064 233.486 361.096 233.369 361.096C233.23 361.096 233.113 361.064 233.017 361C232.932 360.936 232.857 360.845 232.793 360.728L231.001 357.384C230.724 356.872 230.414 356.536 230.073 356.376C229.732 356.205 229.273 356.12 228.697 356.12H226.409V360.584C226.409 360.744 226.366 360.872 226.281 360.968C226.206 361.053 226.084 361.096 225.913 361.096ZM226.409 355.288H229.561C230.51 355.288 231.22 355.091 231.689 354.696C232.169 354.291 232.409 353.699 232.409 352.92C232.409 352.152 232.169 351.571 231.689 351.176C231.22 350.771 230.51 350.568 229.561 350.568H226.409V355.288ZM238.735 361.128C238.01 361.128 237.381 360.963 236.847 360.632C236.314 360.301 235.898 359.837 235.599 359.24C235.311 358.643 235.167 357.933 235.167 357.112C235.167 356.504 235.247 355.955 235.407 355.464C235.578 354.973 235.818 354.552 236.127 354.2C236.447 353.837 236.826 353.565 237.263 353.384C237.711 353.192 238.202 353.096 238.735 353.096C239.471 353.096 240.106 353.261 240.639 353.592C241.173 353.923 241.583 354.392 241.871 355C242.17 355.597 242.319 356.301 242.319 357.112C242.319 357.731 242.234 358.285 242.063 358.776C241.903 359.267 241.663 359.688 241.343 360.04C241.034 360.392 240.661 360.664 240.223 360.856C239.786 361.037 239.29 361.128 238.735 361.128ZM238.735 360.312C239.269 360.312 239.727 360.189 240.111 359.944C240.506 359.688 240.805 359.32 241.007 358.84C241.221 358.36 241.327 357.784 241.327 357.112C241.327 356.099 241.093 355.315 240.623 354.76C240.165 354.205 239.535 353.928 238.735 353.928C238.213 353.928 237.754 354.056 237.359 354.312C236.975 354.557 236.677 354.92 236.463 355.4C236.261 355.869 236.159 356.44 236.159 357.112C236.159 358.136 236.394 358.925 236.863 359.48C237.333 360.035 237.957 360.312 238.735 360.312ZM246.637 361.128C245.923 361.128 245.368 360.904 244.973 360.456C244.589 360.008 244.397 359.373 244.397 358.552V350.12C244.397 349.949 244.44 349.827 244.525 349.752C244.611 349.667 244.733 349.624 244.893 349.624C245.043 349.624 245.16 349.667 245.245 349.752C245.331 349.827 245.373 349.949 245.373 350.12V358.44C245.373 359.059 245.496 359.523 245.741 359.832C245.987 360.131 246.344 360.28 246.813 360.28C246.92 360.28 247.011 360.275 247.085 360.264C247.16 360.253 247.235 360.248 247.309 360.248C247.405 360.237 247.475 360.259 247.517 360.312C247.571 360.355 247.597 360.451 247.597 360.6C247.597 360.749 247.56 360.861 247.485 360.936C247.411 361.011 247.288 361.064 247.117 361.096C247.043 361.107 246.963 361.112 246.877 361.112C246.803 361.123 246.723 361.128 246.637 361.128ZM252.258 361.128C251.458 361.128 250.77 360.968 250.194 360.648C249.618 360.328 249.175 359.869 248.866 359.272C248.556 358.675 248.402 357.965 248.402 357.144C248.402 356.333 248.556 355.629 248.866 355.032C249.175 354.424 249.602 353.949 250.146 353.608C250.7 353.267 251.335 353.096 252.05 353.096C252.572 353.096 253.031 353.187 253.426 353.368C253.831 353.539 254.172 353.789 254.45 354.12C254.738 354.44 254.956 354.835 255.106 355.304C255.255 355.763 255.33 356.285 255.33 356.872C255.33 357.021 255.287 357.133 255.202 357.208C255.127 357.283 255.02 357.32 254.882 357.32H249.106V356.6H254.722L254.466 356.808C254.466 356.189 254.375 355.667 254.194 355.24C254.012 354.803 253.74 354.467 253.378 354.232C253.026 353.997 252.588 353.88 252.066 353.88C251.479 353.88 250.983 354.019 250.578 354.296C250.172 354.563 249.868 354.936 249.666 355.416C249.463 355.885 249.362 356.429 249.362 357.048V357.128C249.362 358.152 249.612 358.941 250.114 359.496C250.615 360.04 251.319 360.312 252.226 360.312C252.62 360.312 252.999 360.259 253.362 360.152C253.735 360.045 254.098 359.864 254.45 359.608C254.556 359.533 254.658 359.496 254.754 359.496C254.86 359.496 254.946 359.523 255.01 359.576C255.084 359.629 255.132 359.699 255.154 359.784C255.186 359.859 255.18 359.944 255.138 360.04C255.106 360.125 255.036 360.205 254.93 360.28C254.588 360.557 254.178 360.771 253.698 360.92C253.218 361.059 252.738 361.128 252.258 361.128Z" fill="#A0A0AB"/>
<path d="M222.554 395.736C221.999 394.616 221.583 393.48 221.306 392.328C221.039 391.165 220.906 389.987 220.906 388.792C220.906 387.992 220.964 387.203 221.082 386.424C221.21 385.645 221.391 384.877 221.626 384.12C221.871 383.352 222.18 382.595 222.554 381.848C222.618 381.72 222.703 381.645 222.81 381.624C222.916 381.592 223.012 381.597 223.098 381.64C223.194 381.683 223.263 381.757 223.306 381.864C223.359 381.96 223.354 382.088 223.29 382.248C222.991 382.963 222.74 383.683 222.538 384.408C222.346 385.133 222.196 385.859 222.09 386.584C221.994 387.309 221.946 388.045 221.946 388.792C221.946 389.528 221.994 390.264 222.09 391C222.196 391.725 222.351 392.445 222.554 393.16C222.756 393.885 223.002 394.611 223.29 395.336C223.354 395.496 223.359 395.624 223.306 395.72C223.263 395.827 223.194 395.896 223.098 395.928C223.012 395.971 222.916 395.976 222.81 395.944C222.703 395.923 222.618 395.853 222.554 395.736ZM225.991 393.096C225.842 393.096 225.724 393.053 225.639 392.968C225.554 392.872 225.511 392.744 225.511 392.584V382.232C225.511 382.061 225.554 381.933 225.639 381.848C225.735 381.763 225.858 381.72 226.007 381.72H229.767C230.962 381.72 231.879 381.997 232.519 382.552C233.159 383.107 233.479 383.896 233.479 384.92C233.479 385.581 233.335 386.152 233.047 386.632C232.759 387.101 232.332 387.459 231.767 387.704C231.212 387.949 230.546 388.072 229.767 388.072L229.943 387.864H230.167C230.572 387.864 230.924 387.971 231.223 388.184C231.532 388.397 231.81 388.744 232.055 389.224L233.751 392.376C233.826 392.493 233.858 392.611 233.847 392.728C233.847 392.835 233.81 392.925 233.735 393C233.66 393.064 233.564 393.096 233.447 393.096C233.308 393.096 233.191 393.064 233.095 393C233.01 392.936 232.935 392.845 232.871 392.728L231.079 389.384C230.802 388.872 230.492 388.536 230.151 388.376C229.81 388.205 229.351 388.12 228.775 388.12H226.487V392.584C226.487 392.744 226.444 392.872 226.359 392.968C226.284 393.053 226.162 393.096 225.991 393.096ZM226.487 387.288H229.639C230.588 387.288 231.298 387.091 231.767 386.696C232.247 386.291 232.487 385.699 232.487 384.92C232.487 384.152 232.247 383.571 231.767 383.176C231.298 382.771 230.588 382.568 229.639 382.568H226.487V387.288ZM238.813 393.128C238.088 393.128 237.459 392.963 236.925 392.632C236.392 392.301 235.976 391.837 235.677 391.24C235.389 390.643 235.245 389.933 235.245 389.112C235.245 388.504 235.325 387.955 235.485 387.464C235.656 386.973 235.896 386.552 236.205 386.2C236.525 385.837 236.904 385.565 237.341 385.384C237.789 385.192 238.28 385.096 238.813 385.096C239.549 385.096 240.184 385.261 240.717 385.592C241.251 385.923 241.661 386.392 241.949 387C242.248 387.597 242.397 388.301 242.397 389.112C242.397 389.731 242.312 390.285 242.141 390.776C241.981 391.267 241.741 391.688 241.421 392.04C241.112 392.392 240.739 392.664 240.301 392.856C239.864 393.037 239.368 393.128 238.813 393.128ZM238.813 392.312C239.347 392.312 239.805 392.189 240.189 391.944C240.584 391.688 240.883 391.32 241.085 390.84C241.299 390.36 241.405 389.784 241.405 389.112C241.405 388.099 241.171 387.315 240.701 386.76C240.243 386.205 239.613 385.928 238.813 385.928C238.291 385.928 237.832 386.056 237.437 386.312C237.053 386.557 236.755 386.92 236.541 387.4C236.339 387.869 236.237 388.44 236.237 389.112C236.237 390.136 236.472 390.925 236.941 391.48C237.411 392.035 238.035 392.312 238.813 392.312ZM246.715 393.128C246.001 393.128 245.446 392.904 245.051 392.456C244.667 392.008 244.475 391.373 244.475 390.552V382.12C244.475 381.949 244.518 381.827 244.603 381.752C244.689 381.667 244.811 381.624 244.971 381.624C245.121 381.624 245.238 381.667 245.323 381.752C245.409 381.827 245.451 381.949 245.451 382.12V390.44C245.451 391.059 245.574 391.523 245.819 391.832C246.065 392.131 246.422 392.28 246.891 392.28C246.998 392.28 247.089 392.275 247.163 392.264C247.238 392.253 247.313 392.248 247.387 392.248C247.483 392.237 247.553 392.259 247.595 392.312C247.649 392.355 247.675 392.451 247.675 392.6C247.675 392.749 247.638 392.861 247.563 392.936C247.489 393.011 247.366 393.064 247.195 393.096C247.121 393.107 247.041 393.112 246.955 393.112C246.881 393.123 246.801 393.128 246.715 393.128ZM252.336 393.128C251.536 393.128 250.848 392.968 250.272 392.648C249.696 392.328 249.253 391.869 248.944 391.272C248.634 390.675 248.48 389.965 248.48 389.144C248.48 388.333 248.634 387.629 248.944 387.032C249.253 386.424 249.68 385.949 250.224 385.608C250.778 385.267 251.413 385.096 252.128 385.096C252.65 385.096 253.109 385.187 253.504 385.368C253.909 385.539 254.25 385.789 254.528 386.12C254.816 386.44 255.034 386.835 255.184 387.304C255.333 387.763 255.408 388.285 255.408 388.872C255.408 389.021 255.365 389.133 255.28 389.208C255.205 389.283 255.098 389.32 254.96 389.32H249.184V388.6H254.8L254.544 388.808C254.544 388.189 254.453 387.667 254.272 387.24C254.09 386.803 253.818 386.467 253.456 386.232C253.104 385.997 252.666 385.88 252.144 385.88C251.557 385.88 251.061 386.019 250.656 386.296C250.25 386.563 249.946 386.936 249.744 387.416C249.541 387.885 249.44 388.429 249.44 389.048V389.128C249.44 390.152 249.69 390.941 250.192 391.496C250.693 392.04 251.397 392.312 252.304 392.312C252.698 392.312 253.077 392.259 253.44 392.152C253.813 392.045 254.176 391.864 254.528 391.608C254.634 391.533 254.736 391.496 254.832 391.496C254.938 391.496 255.024 391.523 255.088 391.576C255.162 391.629 255.21 391.699 255.232 391.784C255.264 391.859 255.258 391.944 255.216 392.04C255.184 392.125 255.114 392.205 255.008 392.28C254.666 392.557 254.256 392.771 253.776 392.92C253.296 393.059 252.816 393.128 252.336 393.128ZM257.433 395.736C257.38 395.853 257.3 395.923 257.193 395.944C257.097 395.976 256.996 395.971 256.889 395.928C256.793 395.896 256.724 395.827 256.681 395.72C256.638 395.624 256.644 395.496 256.697 395.336C257.006 394.611 257.257 393.885 257.449 393.16C257.652 392.445 257.801 391.725 257.897 391C258.004 390.264 258.057 389.528 258.057 388.792C258.057 388.045 258.004 387.309 257.897 386.584C257.79 385.859 257.636 385.139 257.433 384.424C257.241 383.699 256.996 382.973 256.697 382.248C256.644 382.088 256.638 381.96 256.681 381.864C256.724 381.757 256.793 381.683 256.889 381.64C256.985 381.597 257.086 381.592 257.193 381.624C257.3 381.645 257.38 381.72 257.433 381.848C258.009 382.957 258.43 384.093 258.697 385.256C258.964 386.408 259.097 387.587 259.097 388.792C259.097 389.592 259.033 390.387 258.905 391.176C258.788 391.955 258.606 392.728 258.361 393.496C258.126 394.264 257.817 395.011 257.433 395.736Z" fill="#26272B"/>
<path d="M151.5 448.5H196.5C207.27 448.5 216 457.23 216 468C216 478.77 207.27 487.5 196.5 487.5H151.5C140.73 487.5 132 478.77 132 468C132 457.23 140.73 448.5 151.5 448.5Z" fill="#F4F4F5"/>
<path d="M151.5 448.5H196.5C207.27 448.5 216 457.23 216 468C216 478.77 207.27 487.5 196.5 487.5H151.5C140.73 487.5 132 478.77 132 468C132 457.23 140.73 448.5 151.5 448.5Z" stroke="#E4E4E7"/>
<path d="M157.82 473C157.468 473 157.196 472.909 157.004 472.728C156.823 472.536 156.732 472.264 156.732 471.912V462.808C156.732 462.456 156.823 462.189 157.004 462.008C157.196 461.816 157.468 461.72 157.82 461.72H163.532C163.799 461.72 164.001 461.789 164.14 461.928C164.289 462.067 164.364 462.264 164.364 462.52C164.364 462.787 164.289 462.995 164.14 463.144C164.001 463.283 163.799 463.352 163.532 463.352H158.7V466.456H163.18C163.457 466.456 163.665 466.525 163.804 466.664C163.943 466.803 164.012 467.005 164.012 467.272C164.012 467.539 163.943 467.741 163.804 467.88C163.665 468.019 163.457 468.088 163.18 468.088H158.7V471.368H163.532C163.799 471.368 164.001 471.437 164.14 471.576C164.289 471.715 164.364 471.917 164.364 472.184C164.364 472.451 164.289 472.653 164.14 472.792C164.001 472.931 163.799 473 163.532 473H157.82ZM169.048 473.16C168.365 473.16 167.763 472.995 167.24 472.664C166.728 472.333 166.328 471.864 166.04 471.256C165.752 470.637 165.608 469.912 165.608 469.08C165.608 468.237 165.752 467.517 166.04 466.92C166.328 466.312 166.728 465.843 167.24 465.512C167.763 465.181 168.365 465.016 169.048 465.016C169.699 465.016 170.264 465.176 170.744 465.496C171.235 465.816 171.565 466.237 171.736 466.76H171.56V462.6C171.56 462.269 171.645 462.019 171.816 461.848C171.987 461.677 172.232 461.592 172.552 461.592C172.872 461.592 173.117 461.677 173.288 461.848C173.469 462.019 173.56 462.269 173.56 462.6V472.104C173.56 472.435 173.475 472.691 173.304 472.872C173.133 473.043 172.888 473.128 172.568 473.128C172.248 473.128 172.003 473.043 171.832 472.872C171.661 472.691 171.576 472.435 171.576 472.104V470.856L171.752 471.336C171.592 471.891 171.267 472.333 170.776 472.664C170.285 472.995 169.709 473.16 169.048 473.16ZM169.608 471.64C170.003 471.64 170.349 471.544 170.648 471.352C170.947 471.16 171.176 470.877 171.336 470.504C171.507 470.12 171.592 469.645 171.592 469.08C171.592 468.227 171.411 467.592 171.048 467.176C170.685 466.749 170.205 466.536 169.608 466.536C169.213 466.536 168.867 466.632 168.568 466.824C168.269 467.005 168.035 467.288 167.864 467.672C167.704 468.045 167.624 468.515 167.624 469.08C167.624 469.923 167.805 470.563 168.168 471C168.531 471.427 169.011 471.64 169.608 471.64ZM176.626 473.112C176.306 473.112 176.06 473.016 175.89 472.824C175.719 472.632 175.634 472.365 175.634 472.024V466.152C175.634 465.8 175.719 465.533 175.89 465.352C176.06 465.16 176.306 465.064 176.626 465.064C176.946 465.064 177.191 465.16 177.362 465.352C177.543 465.533 177.634 465.8 177.634 466.152V472.024C177.634 472.365 177.548 472.632 177.378 472.824C177.207 473.016 176.956 473.112 176.626 473.112ZM176.626 463.576C176.252 463.576 175.959 463.485 175.746 463.304C175.543 463.112 175.442 462.851 175.442 462.52C175.442 462.179 175.543 461.917 175.746 461.736C175.959 461.555 176.252 461.464 176.626 461.464C177.01 461.464 177.303 461.555 177.506 461.736C177.708 461.917 177.81 462.179 177.81 462.52C177.81 462.851 177.708 463.112 177.506 463.304C177.303 463.485 177.01 463.576 176.626 463.576ZM183.296 473.16C182.603 473.16 182.021 473.043 181.552 472.808C181.093 472.573 180.752 472.232 180.528 471.784C180.304 471.325 180.192 470.76 180.192 470.088V466.68H179.36C179.104 466.68 178.907 466.616 178.768 466.488C178.629 466.349 178.56 466.163 178.56 465.928C178.56 465.683 178.629 465.496 178.768 465.368C178.907 465.24 179.104 465.176 179.36 465.176H180.192V463.72C180.192 463.389 180.277 463.139 180.448 462.968C180.629 462.797 180.88 462.712 181.2 462.712C181.52 462.712 181.765 462.797 181.936 462.968C182.107 463.139 182.192 463.389 182.192 463.72V465.176H183.888C184.144 465.176 184.341 465.24 184.48 465.368C184.619 465.496 184.688 465.683 184.688 465.928C184.688 466.163 184.619 466.349 184.48 466.488C184.341 466.616 184.144 466.68 183.888 466.68H182.192V469.976C182.192 470.488 182.304 470.872 182.528 471.128C182.752 471.384 183.115 471.512 183.616 471.512C183.797 471.512 183.957 471.496 184.096 471.464C184.235 471.432 184.357 471.411 184.464 471.4C184.592 471.389 184.699 471.432 184.784 471.528C184.869 471.613 184.912 471.795 184.912 472.072C184.912 472.285 184.875 472.477 184.8 472.648C184.736 472.808 184.613 472.92 184.432 472.984C184.293 473.027 184.112 473.064 183.888 473.096C183.664 473.139 183.467 473.16 183.296 473.16ZM188.459 469.736C188.256 469.736 188.096 469.672 187.979 469.544C187.872 469.405 187.819 469.224 187.819 469C187.819 468.669 187.856 468.36 187.931 468.072C188.016 467.773 188.149 467.475 188.331 467.176C188.512 466.877 188.752 466.563 189.051 466.232C189.275 465.976 189.451 465.752 189.579 465.56C189.717 465.357 189.813 465.165 189.867 464.984C189.931 464.803 189.963 464.616 189.963 464.424C189.963 464.072 189.835 463.795 189.579 463.592C189.323 463.389 188.96 463.288 188.491 463.288C188.064 463.288 187.675 463.347 187.323 463.464C186.981 463.571 186.635 463.725 186.283 463.928C186.048 464.067 185.835 464.131 185.643 464.12C185.461 464.099 185.312 464.029 185.195 463.912C185.077 463.795 185.003 463.651 184.971 463.48C184.939 463.309 184.965 463.133 185.051 462.952C185.136 462.771 185.291 462.605 185.515 462.456C185.952 462.168 186.453 461.949 187.019 461.8C187.584 461.64 188.117 461.56 188.619 461.56C189.291 461.56 189.877 461.672 190.379 461.896C190.891 462.12 191.285 462.429 191.563 462.824C191.851 463.219 191.995 463.683 191.995 464.216C191.995 464.547 191.947 464.861 191.851 465.16C191.755 465.448 191.6 465.741 191.387 466.04C191.173 466.328 190.88 466.643 190.507 466.984C190.176 467.283 189.909 467.555 189.707 467.8C189.515 468.045 189.371 468.28 189.275 468.504C189.189 468.728 189.131 468.968 189.099 469.224C189.088 469.373 189.024 469.496 188.907 469.592C188.8 469.688 188.651 469.736 188.459 469.736ZM188.427 473.08C188.064 473.08 187.771 472.968 187.547 472.744C187.333 472.52 187.227 472.232 187.227 471.88C187.227 471.539 187.333 471.261 187.547 471.048C187.771 470.824 188.064 470.712 188.427 470.712C188.8 470.712 189.088 470.824 189.291 471.048C189.504 471.261 189.611 471.539 189.611 471.88C189.611 472.232 189.504 472.52 189.291 472.744C189.088 472.968 188.8 473.08 188.427 473.08Z" fill="#66C61C"/>
<path d="M260.5 448.5H328.5C339.27 448.5 348 457.23 348 468C348 478.77 339.27 487.5 328.5 487.5H260.5C249.73 487.5 241 478.77 241 468C241 457.23 249.73 448.5 260.5 448.5Z" fill="#F4F4F5"/>
<path d="M260.5 448.5H328.5C339.27 448.5 348 457.23 348 468C348 478.77 339.27 487.5 328.5 487.5H260.5C249.73 487.5 241 478.77 241 468C241 457.23 249.73 448.5 260.5 448.5Z" stroke="#E4E4E7"/>
<path d="M266.772 473C266.441 473 266.185 472.909 266.004 472.728C265.823 472.536 265.732 472.275 265.732 471.944V462.712C265.732 462.371 265.817 462.115 265.988 461.944C266.169 461.763 266.425 461.672 266.756 461.672C267.087 461.672 267.337 461.763 267.508 461.944C267.689 462.115 267.78 462.371 267.78 462.712V471.256H272.42C272.708 471.256 272.927 471.331 273.076 471.48C273.236 471.629 273.316 471.843 273.316 472.12C273.316 472.397 273.236 472.616 273.076 472.776C272.927 472.925 272.708 473 272.42 473H266.772ZM278.014 473.16C277.204 473.16 276.5 472.995 275.902 472.664C275.305 472.333 274.841 471.864 274.51 471.256C274.18 470.637 274.014 469.912 274.014 469.08C274.014 468.451 274.105 467.891 274.286 467.4C274.478 466.899 274.75 466.472 275.102 466.12C275.454 465.757 275.876 465.485 276.366 465.304C276.857 465.112 277.406 465.016 278.014 465.016C278.825 465.016 279.529 465.181 280.126 465.512C280.724 465.843 281.188 466.312 281.518 466.92C281.849 467.528 282.014 468.248 282.014 469.08C282.014 469.709 281.918 470.275 281.726 470.776C281.545 471.277 281.278 471.709 280.926 472.072C280.574 472.424 280.153 472.696 279.662 472.888C279.172 473.069 278.622 473.16 278.014 473.16ZM278.014 471.64C278.409 471.64 278.756 471.544 279.054 471.352C279.353 471.16 279.582 470.877 279.742 470.504C279.913 470.12 279.998 469.645 279.998 469.08C279.998 468.227 279.817 467.592 279.454 467.176C279.092 466.749 278.612 466.536 278.014 466.536C277.62 466.536 277.273 466.632 276.974 466.824C276.676 467.005 276.441 467.288 276.27 467.672C276.11 468.045 276.03 468.515 276.03 469.08C276.03 469.923 276.212 470.563 276.574 471C276.937 471.427 277.417 471.64 278.014 471.64ZM287.313 476.04C286.737 476.04 286.177 475.987 285.633 475.88C285.1 475.773 284.614 475.608 284.177 475.384C283.974 475.277 283.836 475.149 283.761 475C283.697 474.851 283.676 474.696 283.697 474.536C283.729 474.387 283.793 474.253 283.889 474.136C283.996 474.019 284.124 473.939 284.273 473.896C284.422 473.853 284.577 473.875 284.737 473.96C285.206 474.195 285.649 474.344 286.065 474.408C286.492 474.483 286.854 474.52 287.153 474.52C287.868 474.52 288.401 474.344 288.753 473.992C289.116 473.651 289.297 473.139 289.297 472.456V471.016H289.441C289.281 471.56 288.945 471.997 288.433 472.328C287.932 472.648 287.361 472.808 286.721 472.808C286.017 472.808 285.404 472.648 284.881 472.328C284.358 471.997 283.953 471.539 283.665 470.952C283.377 470.365 283.233 469.683 283.233 468.904C283.233 468.317 283.313 467.789 283.473 467.32C283.644 466.84 283.878 466.429 284.177 466.088C284.486 465.747 284.854 465.485 285.281 465.304C285.718 465.112 286.198 465.016 286.721 465.016C287.382 465.016 287.958 465.181 288.449 465.512C288.95 465.832 289.276 466.259 289.425 466.792L289.265 467.192V466.056C289.265 465.725 289.35 465.475 289.521 465.304C289.702 465.133 289.948 465.048 290.257 465.048C290.577 465.048 290.822 465.133 290.993 465.304C291.164 465.475 291.249 465.725 291.249 466.056V472.216C291.249 473.485 290.913 474.44 290.241 475.08C289.569 475.72 288.593 476.04 287.313 476.04ZM287.265 471.288C287.681 471.288 288.038 471.192 288.337 471C288.636 470.808 288.865 470.536 289.025 470.184C289.196 469.821 289.281 469.395 289.281 468.904C289.281 468.168 289.1 467.592 288.737 467.176C288.374 466.749 287.884 466.536 287.265 466.536C286.849 466.536 286.492 466.632 286.193 466.824C285.894 467.016 285.66 467.288 285.489 467.64C285.329 467.992 285.249 468.413 285.249 468.904C285.249 469.64 285.43 470.221 285.793 470.648C286.156 471.075 286.646 471.288 287.265 471.288ZM296.889 473.16C296.079 473.16 295.375 472.995 294.777 472.664C294.18 472.333 293.716 471.864 293.385 471.256C293.055 470.637 292.889 469.912 292.889 469.08C292.889 468.451 292.98 467.891 293.161 467.4C293.353 466.899 293.625 466.472 293.977 466.12C294.329 465.757 294.751 465.485 295.241 465.304C295.732 465.112 296.281 465.016 296.889 465.016C297.7 465.016 298.404 465.181 299.001 465.512C299.599 465.843 300.063 466.312 300.393 466.92C300.724 467.528 300.889 468.248 300.889 469.08C300.889 469.709 300.793 470.275 300.601 470.776C300.42 471.277 300.153 471.709 299.801 472.072C299.449 472.424 299.028 472.696 298.537 472.888C298.047 473.069 297.497 473.16 296.889 473.16ZM296.889 471.64C297.284 471.64 297.631 471.544 297.929 471.352C298.228 471.16 298.457 470.877 298.617 470.504C298.788 470.12 298.873 469.645 298.873 469.08C298.873 468.227 298.692 467.592 298.329 467.176C297.967 466.749 297.487 466.536 296.889 466.536C296.495 466.536 296.148 466.632 295.849 466.824C295.551 467.005 295.316 467.288 295.145 467.672C294.985 468.045 294.905 468.515 294.905 469.08C294.905 469.923 295.087 470.563 295.449 471C295.812 471.427 296.292 471.64 296.889 471.64ZM305.372 473.16C304.721 473.16 304.183 473.043 303.756 472.808C303.329 472.563 303.009 472.2 302.796 471.72C302.593 471.24 302.492 470.643 302.492 469.928V466.056C302.492 465.715 302.577 465.464 302.748 465.304C302.919 465.133 303.164 465.048 303.484 465.048C303.804 465.048 304.049 465.133 304.22 465.304C304.401 465.464 304.492 465.715 304.492 466.056V469.96C304.492 470.515 304.604 470.925 304.828 471.192C305.052 471.459 305.409 471.592 305.9 471.592C306.433 471.592 306.871 471.411 307.212 471.048C307.553 470.675 307.724 470.184 307.724 469.576V466.056C307.724 465.715 307.809 465.464 307.98 465.304C308.151 465.133 308.396 465.048 308.716 465.048C309.036 465.048 309.281 465.133 309.452 465.304C309.633 465.464 309.724 465.715 309.724 466.056V472.104C309.724 472.787 309.399 473.128 308.748 473.128C308.439 473.128 308.199 473.043 308.028 472.872C307.857 472.691 307.772 472.435 307.772 472.104V470.888L307.996 471.368C307.772 471.944 307.431 472.387 306.972 472.696C306.524 473.005 305.991 473.16 305.372 473.16ZM315.39 473.16C314.696 473.16 314.115 473.043 313.646 472.808C313.187 472.573 312.846 472.232 312.622 471.784C312.398 471.325 312.286 470.76 312.286 470.088V466.68H311.454C311.198 466.68 311 466.616 310.862 466.488C310.723 466.349 310.654 466.163 310.654 465.928C310.654 465.683 310.723 465.496 310.862 465.368C311 465.24 311.198 465.176 311.454 465.176H312.286V463.72C312.286 463.389 312.371 463.139 312.542 462.968C312.723 462.797 312.974 462.712 313.294 462.712C313.614 462.712 313.859 462.797 314.03 462.968C314.2 463.139 314.286 463.389 314.286 463.72V465.176H315.982C316.238 465.176 316.435 465.24 316.574 465.368C316.712 465.496 316.782 465.683 316.782 465.928C316.782 466.163 316.712 466.349 316.574 466.488C316.435 466.616 316.238 466.68 315.982 466.68H314.286V469.976C314.286 470.488 314.398 470.872 314.622 471.128C314.846 471.384 315.208 471.512 315.71 471.512C315.891 471.512 316.051 471.496 316.19 471.464C316.328 471.432 316.451 471.411 316.558 471.4C316.686 471.389 316.792 471.432 316.878 471.528C316.963 471.613 317.006 471.795 317.006 472.072C317.006 472.285 316.968 472.477 316.894 472.648C316.83 472.808 316.707 472.92 316.526 472.984C316.387 473.027 316.206 473.064 315.982 473.096C315.758 473.139 315.56 473.16 315.39 473.16ZM320.552 469.736C320.35 469.736 320.19 469.672 320.072 469.544C319.966 469.405 319.912 469.224 319.912 469C319.912 468.669 319.95 468.36 320.024 468.072C320.11 467.773 320.243 467.475 320.424 467.176C320.606 466.877 320.846 466.563 321.144 466.232C321.368 465.976 321.544 465.752 321.672 465.56C321.811 465.357 321.907 465.165 321.96 464.984C322.024 464.803 322.056 464.616 322.056 464.424C322.056 464.072 321.928 463.795 321.672 463.592C321.416 463.389 321.054 463.288 320.584 463.288C320.158 463.288 319.768 463.347 319.416 463.464C319.075 463.571 318.728 463.725 318.376 463.928C318.142 464.067 317.928 464.131 317.736 464.12C317.555 464.099 317.406 464.029 317.288 463.912C317.171 463.795 317.096 463.651 317.064 463.48C317.032 463.309 317.059 463.133 317.144 462.952C317.23 462.771 317.384 462.605 317.608 462.456C318.046 462.168 318.547 461.949 319.112 461.8C319.678 461.64 320.211 461.56 320.712 461.56C321.384 461.56 321.971 461.672 322.472 461.896C322.984 462.12 323.379 462.429 323.656 462.824C323.944 463.219 324.088 463.683 324.088 464.216C324.088 464.547 324.04 464.861 323.944 465.16C323.848 465.448 323.694 465.741 323.48 466.04C323.267 466.328 322.974 466.643 322.6 466.984C322.27 467.283 322.003 467.555 321.8 467.8C321.608 468.045 321.464 468.28 321.368 468.504C321.283 468.728 321.224 468.968 321.192 469.224C321.182 469.373 321.118 469.496 321 469.592C320.894 469.688 320.744 469.736 320.552 469.736ZM320.52 473.08C320.158 473.08 319.864 472.968 319.64 472.744C319.427 472.52 319.32 472.232 319.32 471.88C319.32 471.539 319.427 471.261 319.64 471.048C319.864 470.824 320.158 470.712 320.52 470.712C320.894 470.712 321.182 470.824 321.384 471.048C321.598 471.261 321.704 471.539 321.704 471.88C321.704 472.232 321.598 472.52 321.384 472.744C321.182 472.968 320.894 473.08 320.52 473.08Z" fill="#66C61C"/>
<g clip-path="url(#clip1_13948_4985)">
<mask id="path-17-inside-1_13948_4985" fill="white">
<path d="M24 544H456V656H24V544Z"/>
</mask>
<mask id="path-19-inside-2_13948_4985" fill="white">
<path d="M24 544H456V600H24V544Z"/>
</mask>
<path d="M24 544H456V600H24V544Z" fill="white"/>
<path d="M456 599H24V601H456V599Z" fill="#E4E4E7" mask="url(#path-19-inside-2_13948_4985)"/>
<g clip-path="url(#clip2_13948_4985)">
<path d="M52 562C46.48 562 42 566.48 42 572C42 577.52 46.48 582 52 582C57.52 582 62 577.52 62 572C62 566.48 57.52 562 52 562ZM53 579H51V577H53V579ZM55.07 571.25L54.17 572.17C53.45 572.9 53 573.5 53 575H51V574.5C51 573.4 51.45 572.4 52.17 571.67L53.41 570.41C53.78 570.05 54 569.55 54 569C54 567.9 53.1 567 52 567C50.9 567 50 567.9 50 569H48C48 566.79 49.79 565 52 565C54.21 565 56 566.79 56 569C56 569.88 55.64 570.68 55.07 571.25Z" fill="#26272B"/>
</g>
<path d="M81.952 577.096C81.8027 577.096 81.6853 577.053 81.6 576.968C81.5147 576.872 81.472 576.744 81.472 576.584V566.136C81.472 565.965 81.5147 565.837 81.6 565.752C81.6853 565.667 81.8027 565.624 81.952 565.624C82.112 565.624 82.2347 565.667 82.32 565.752C82.4053 565.837 82.448 565.965 82.448 566.136V570.84H89.648V566.136C89.648 565.965 89.6907 565.837 89.776 565.752C89.8613 565.667 89.984 565.624 90.144 565.624C90.2933 565.624 90.4107 565.667 90.496 565.752C90.5813 565.837 90.624 565.965 90.624 566.136V576.584C90.624 576.744 90.5813 576.872 90.496 576.968C90.4107 577.053 90.2933 577.096 90.144 577.096C89.984 577.096 89.8613 577.053 89.776 576.968C89.6907 576.872 89.648 576.744 89.648 576.584V571.72H82.448V576.584C82.448 576.744 82.4053 576.872 82.32 576.968C82.2453 577.053 82.1227 577.096 81.952 577.096ZM96.7498 577.128C95.9498 577.128 95.2618 576.968 94.6858 576.648C94.1098 576.328 93.6671 575.869 93.3578 575.272C93.0484 574.675 92.8938 573.965 92.8938 573.144C92.8938 572.333 93.0484 571.629 93.3578 571.032C93.6671 570.424 94.0938 569.949 94.6378 569.608C95.1924 569.267 95.8271 569.096 96.5418 569.096C97.0644 569.096 97.5231 569.187 97.9178 569.368C98.3231 569.539 98.6644 569.789 98.9418 570.12C99.2298 570.44 99.4484 570.835 99.5978 571.304C99.7471 571.763 99.8218 572.285 99.8218 572.872C99.8218 573.021 99.7791 573.133 99.6938 573.208C99.6191 573.283 99.5124 573.32 99.3738 573.32H93.5978V572.6H99.2138L98.9578 572.808C98.9578 572.189 98.8671 571.667 98.6858 571.24C98.5044 570.803 98.2324 570.467 97.8698 570.232C97.5178 569.997 97.0804 569.88 96.5578 569.88C95.9711 569.88 95.4751 570.019 95.0698 570.296C94.6644 570.563 94.3604 570.936 94.1578 571.416C93.9551 571.885 93.8538 572.429 93.8538 573.048V573.128C93.8538 574.152 94.1044 574.941 94.6058 575.496C95.1071 576.04 95.8111 576.312 96.7178 576.312C97.1124 576.312 97.4911 576.259 97.8538 576.152C98.2271 576.045 98.5898 575.864 98.9418 575.608C99.0484 575.533 99.1498 575.496 99.2458 575.496C99.3524 575.496 99.4378 575.523 99.5018 575.576C99.5764 575.629 99.6244 575.699 99.6458 575.784C99.6778 575.859 99.6724 575.944 99.6298 576.04C99.5978 576.125 99.5284 576.205 99.4218 576.28C99.0804 576.557 98.6698 576.771 98.1898 576.92C97.7098 577.059 97.2298 577.128 96.7498 577.128ZM104.051 577.128C103.337 577.128 102.782 576.904 102.387 576.456C102.003 576.008 101.811 575.373 101.811 574.552V566.12C101.811 565.949 101.854 565.827 101.939 565.752C102.025 565.667 102.147 565.624 102.307 565.624C102.457 565.624 102.574 565.667 102.659 565.752C102.745 565.827 102.787 565.949 102.787 566.12V574.44C102.787 575.059 102.91 575.523 103.155 575.832C103.401 576.131 103.758 576.28 104.227 576.28C104.334 576.28 104.425 576.275 104.499 576.264C104.574 576.253 104.649 576.248 104.723 576.248C104.819 576.237 104.889 576.259 104.931 576.312C104.985 576.355 105.011 576.451 105.011 576.6C105.011 576.749 104.974 576.861 104.899 576.936C104.825 577.011 104.702 577.064 104.531 577.096C104.457 577.107 104.377 577.112 104.291 577.112C104.217 577.123 104.137 577.128 104.051 577.128ZM106.87 579.976C106.71 579.976 106.587 579.933 106.502 579.848C106.416 579.763 106.374 579.64 106.374 579.48V569.64C106.374 569.469 106.416 569.341 106.502 569.256C106.587 569.171 106.71 569.128 106.87 569.128C107.019 569.128 107.136 569.171 107.222 569.256C107.307 569.341 107.35 569.469 107.35 569.64V571.272L107.174 571.176C107.355 570.536 107.702 570.029 108.214 569.656C108.726 569.283 109.344 569.096 110.07 569.096C110.763 569.096 111.366 569.261 111.878 569.592C112.4 569.923 112.8 570.387 113.078 570.984C113.366 571.581 113.51 572.291 113.51 573.112C113.51 573.933 113.366 574.648 113.078 575.256C112.8 575.853 112.406 576.317 111.894 576.648C111.382 576.968 110.774 577.128 110.07 577.128C109.344 577.128 108.726 576.941 108.214 576.568C107.702 576.195 107.355 575.699 107.174 575.08H107.35V579.48C107.35 579.64 107.307 579.763 107.222 579.848C107.136 579.933 107.019 579.976 106.87 579.976ZM109.926 576.312C110.448 576.312 110.902 576.189 111.286 575.944C111.68 575.688 111.984 575.32 112.198 574.84C112.411 574.36 112.518 573.784 112.518 573.112C112.518 572.099 112.283 571.315 111.814 570.76C111.344 570.205 110.715 569.928 109.926 569.928C109.403 569.928 108.944 570.056 108.55 570.312C108.166 570.557 107.867 570.92 107.654 571.4C107.44 571.869 107.334 572.44 107.334 573.112C107.334 574.136 107.568 574.925 108.038 575.48C108.507 576.035 109.136 576.312 109.926 576.312ZM122.824 577.128C122.099 577.128 121.475 577.016 120.952 576.792C120.429 576.557 120.029 576.237 119.752 575.832C119.485 575.416 119.352 574.925 119.352 574.36C119.352 574.008 119.4 573.683 119.496 573.384C119.592 573.085 119.736 572.803 119.928 572.536C120.131 572.259 120.381 571.987 120.68 571.72C120.989 571.453 121.347 571.181 121.752 570.904L122.264 570.552L122.136 570.76C121.592 570.163 121.213 569.661 121 569.256C120.797 568.84 120.696 568.419 120.696 567.992C120.696 567.512 120.803 567.096 121.016 566.744C121.24 566.381 121.549 566.099 121.944 565.896C122.339 565.693 122.803 565.592 123.336 565.592C124.008 565.592 124.568 565.789 125.016 566.184C125.475 566.568 125.704 567.101 125.704 567.784C125.704 568.157 125.629 568.509 125.48 568.84C125.341 569.16 125.096 569.491 124.744 569.832C124.392 570.163 123.891 570.536 123.24 570.952L123.272 570.68L126.392 574.232H126.168C126.317 573.965 126.451 573.656 126.568 573.304C126.696 572.952 126.797 572.568 126.872 572.152C126.947 571.725 126.995 571.283 127.016 570.824C127.037 570.664 127.085 570.547 127.16 570.472C127.235 570.397 127.347 570.36 127.496 570.36C127.635 570.36 127.741 570.403 127.816 570.488C127.891 570.573 127.917 570.696 127.896 570.856C127.875 571.411 127.811 571.933 127.704 572.424C127.597 572.915 127.464 573.368 127.304 573.784C127.144 574.2 126.957 574.584 126.744 574.936L126.728 574.6L128.344 576.44C128.451 576.547 128.499 576.653 128.488 576.76C128.488 576.867 128.445 576.947 128.36 577C128.285 577.064 128.184 577.096 128.056 577.096C127.939 577.096 127.843 577.075 127.768 577.032C127.704 577 127.624 576.931 127.528 576.824L126.2 575.304H126.472C126.045 575.88 125.517 576.328 124.888 576.648C124.259 576.968 123.571 577.128 122.824 577.128ZM122.856 576.296C123.507 576.296 124.088 576.157 124.6 575.88C125.112 575.592 125.549 575.176 125.912 574.632V575L122.472 571.144L122.824 571.176L122.328 571.512C121.827 571.853 121.427 572.168 121.128 572.456C120.84 572.733 120.632 573.021 120.504 573.32C120.387 573.608 120.328 573.939 120.328 574.312C120.328 574.931 120.541 575.416 120.968 575.768C121.395 576.12 122.024 576.296 122.856 576.296ZM123.336 566.392C122.835 566.392 122.424 566.541 122.104 566.84C121.795 567.128 121.64 567.507 121.64 567.976C121.64 568.211 121.677 568.435 121.752 568.648C121.827 568.851 121.96 569.085 122.152 569.352C122.344 569.608 122.611 569.933 122.952 570.328L122.648 570.376C123.192 570.013 123.619 569.699 123.928 569.432C124.248 569.155 124.477 568.893 124.616 568.648C124.755 568.392 124.824 568.131 124.824 567.864C124.824 567.416 124.685 567.059 124.408 566.792C124.131 566.525 123.773 566.392 123.336 566.392ZM137.011 577.128C136.531 577.128 136.051 577.064 135.571 576.936C135.102 576.808 134.654 576.589 134.227 576.28C134.142 576.227 134.083 576.163 134.051 576.088C134.03 576.003 134.024 575.917 134.035 575.832C134.056 575.747 134.094 575.677 134.147 575.624C134.211 575.56 134.286 575.523 134.371 575.512C134.456 575.501 134.547 575.528 134.643 575.592C135.059 575.869 135.464 576.061 135.859 576.168C136.254 576.275 136.648 576.328 137.043 576.328C137.694 576.328 138.19 576.205 138.531 575.96C138.872 575.715 139.043 575.384 139.043 574.968C139.043 574.627 138.931 574.365 138.707 574.184C138.494 573.992 138.142 573.837 137.651 573.72L136.259 573.4C135.587 573.251 135.091 573.011 134.771 572.68C134.451 572.339 134.291 571.901 134.291 571.368C134.291 570.909 134.408 570.509 134.643 570.168C134.888 569.827 135.23 569.565 135.667 569.384C136.115 569.192 136.627 569.096 137.203 569.096C137.672 569.096 138.12 569.165 138.547 569.304C138.974 569.443 139.347 569.656 139.667 569.944C139.752 570.008 139.806 570.083 139.827 570.168C139.859 570.253 139.859 570.339 139.827 570.424C139.806 570.499 139.763 570.563 139.699 570.616C139.635 570.669 139.56 570.696 139.475 570.696C139.39 570.696 139.299 570.664 139.203 570.6C138.894 570.365 138.568 570.195 138.227 570.088C137.886 569.971 137.539 569.912 137.187 569.912C136.568 569.912 136.088 570.04 135.747 570.296C135.416 570.552 135.251 570.899 135.251 571.336C135.251 571.667 135.352 571.933 135.555 572.136C135.768 572.339 136.099 572.493 136.547 572.6L137.939 572.92C138.632 573.08 139.15 573.32 139.491 573.64C139.832 573.949 140.003 574.371 140.003 574.904C140.003 575.587 139.731 576.131 139.187 576.536C138.654 576.931 137.928 577.128 137.011 577.128ZM144.86 577.128C144.241 577.128 143.724 577.016 143.308 576.792C142.902 576.568 142.598 576.232 142.396 575.784C142.193 575.336 142.092 574.781 142.092 574.12V569.64C142.092 569.469 142.134 569.341 142.22 569.256C142.305 569.171 142.428 569.128 142.588 569.128C142.737 569.128 142.854 569.171 142.94 569.256C143.025 569.341 143.068 569.469 143.068 569.64V574.072C143.068 574.819 143.222 575.379 143.532 575.752C143.841 576.115 144.326 576.296 144.988 576.296C145.713 576.296 146.3 576.056 146.748 575.576C147.196 575.085 147.42 574.445 147.42 573.656V569.64C147.42 569.469 147.462 569.341 147.548 569.256C147.633 569.171 147.756 569.128 147.916 569.128C148.065 569.128 148.182 569.171 148.268 569.256C148.353 569.341 148.396 569.469 148.396 569.64V576.6C148.396 576.931 148.241 577.096 147.932 577.096C147.782 577.096 147.665 577.053 147.58 576.968C147.494 576.883 147.452 576.76 147.452 576.6V575.016L147.644 575.128C147.441 575.779 147.089 576.275 146.588 576.616C146.086 576.957 145.51 577.128 144.86 577.128ZM151.464 579.976C151.304 579.976 151.181 579.933 151.096 579.848C151.01 579.763 150.968 579.64 150.968 579.48V569.64C150.968 569.469 151.01 569.341 151.096 569.256C151.181 569.171 151.304 569.128 151.464 569.128C151.613 569.128 151.73 569.171 151.816 569.256C151.901 569.341 151.944 569.469 151.944 569.64V571.272L151.768 571.176C151.949 570.536 152.296 570.029 152.808 569.656C153.32 569.283 153.938 569.096 154.664 569.096C155.357 569.096 155.96 569.261 156.472 569.592C156.994 569.923 157.394 570.387 157.672 570.984C157.96 571.581 158.104 572.291 158.104 573.112C158.104 573.933 157.96 574.648 157.672 575.256C157.394 575.853 157 576.317 156.488 576.648C155.976 576.968 155.368 577.128 154.664 577.128C153.938 577.128 153.32 576.941 152.808 576.568C152.296 576.195 151.949 575.699 151.768 575.08H151.944V579.48C151.944 579.64 151.901 579.763 151.816 579.848C151.73 579.933 151.613 579.976 151.464 579.976ZM154.52 576.312C155.042 576.312 155.496 576.189 155.88 575.944C156.274 575.688 156.578 575.32 156.792 574.84C157.005 574.36 157.112 573.784 157.112 573.112C157.112 572.099 156.877 571.315 156.408 570.76C155.938 570.205 155.309 569.928 154.52 569.928C153.997 569.928 153.538 570.056 153.144 570.312C152.76 570.557 152.461 570.92 152.248 571.4C152.034 571.869 151.928 572.44 151.928 573.112C151.928 574.136 152.162 574.925 152.632 575.48C153.101 576.035 153.73 576.312 154.52 576.312ZM160.667 579.976C160.507 579.976 160.384 579.933 160.299 579.848C160.213 579.763 160.171 579.64 160.171 579.48V569.64C160.171 569.469 160.213 569.341 160.299 569.256C160.384 569.171 160.507 569.128 160.667 569.128C160.816 569.128 160.933 569.171 161.019 569.256C161.104 569.341 161.147 569.469 161.147 569.64V571.272L160.971 571.176C161.152 570.536 161.499 570.029 162.011 569.656C162.523 569.283 163.141 569.096 163.867 569.096C164.56 569.096 165.163 569.261 165.675 569.592C166.197 569.923 166.597 570.387 166.875 570.984C167.163 571.581 167.307 572.291 167.307 573.112C167.307 573.933 167.163 574.648 166.875 575.256C166.597 575.853 166.203 576.317 165.691 576.648C165.179 576.968 164.571 577.128 163.867 577.128C163.141 577.128 162.523 576.941 162.011 576.568C161.499 576.195 161.152 575.699 160.971 575.08H161.147V579.48C161.147 579.64 161.104 579.763 161.019 579.848C160.933 579.933 160.816 579.976 160.667 579.976ZM163.723 576.312C164.245 576.312 164.699 576.189 165.083 575.944C165.477 575.688 165.781 575.32 165.995 574.84C166.208 574.36 166.315 573.784 166.315 573.112C166.315 572.099 166.08 571.315 165.611 570.76C165.141 570.205 164.512 569.928 163.723 569.928C163.2 569.928 162.741 570.056 162.347 570.312C161.963 570.557 161.664 570.92 161.451 571.4C161.237 571.869 161.131 572.44 161.131 573.112C161.131 574.136 161.365 574.925 161.835 575.48C162.304 576.035 162.933 576.312 163.723 576.312ZM172.462 577.128C171.736 577.128 171.107 576.963 170.574 576.632C170.04 576.301 169.624 575.837 169.326 575.24C169.038 574.643 168.894 573.933 168.894 573.112C168.894 572.504 168.974 571.955 169.134 571.464C169.304 570.973 169.544 570.552 169.854 570.2C170.174 569.837 170.552 569.565 170.99 569.384C171.438 569.192 171.928 569.096 172.462 569.096C173.198 569.096 173.832 569.261 174.366 569.592C174.899 569.923 175.31 570.392 175.598 571C175.896 571.597 176.046 572.301 176.046 573.112C176.046 573.731 175.96 574.285 175.79 574.776C175.63 575.267 175.39 575.688 175.07 576.04C174.76 576.392 174.387 576.664 173.95 576.856C173.512 577.037 173.016 577.128 172.462 577.128ZM172.462 576.312C172.995 576.312 173.454 576.189 173.838 575.944C174.232 575.688 174.531 575.32 174.734 574.84C174.947 574.36 175.054 573.784 175.054 573.112C175.054 572.099 174.819 571.315 174.35 570.76C173.891 570.205 173.262 569.928 172.462 569.928C171.939 569.928 171.48 570.056 171.086 570.312C170.702 570.557 170.403 570.92 170.19 571.4C169.987 571.869 169.886 572.44 169.886 573.112C169.886 574.136 170.12 574.925 170.59 575.48C171.059 576.035 171.683 576.312 172.462 576.312ZM178.62 577.096C178.46 577.096 178.337 577.053 178.252 576.968C178.166 576.883 178.124 576.76 178.124 576.6V569.64C178.124 569.469 178.166 569.341 178.252 569.256C178.337 569.171 178.46 569.128 178.62 569.128C178.769 569.128 178.881 569.171 178.956 569.256C179.041 569.341 179.084 569.469 179.084 569.64V571.064H178.924C179.116 570.435 179.457 569.949 179.948 569.608C180.449 569.267 181.046 569.091 181.74 569.08C181.868 569.069 181.974 569.096 182.06 569.16C182.145 569.224 182.188 569.325 182.188 569.464C182.198 569.613 182.166 569.731 182.092 569.816C182.017 569.891 181.894 569.939 181.724 569.96L181.5 569.976C180.742 570.051 180.156 570.301 179.74 570.728C179.324 571.155 179.116 571.731 179.116 572.456V576.6C179.116 576.76 179.073 576.883 178.988 576.968C178.913 577.053 178.79 577.096 178.62 577.096ZM186.942 577.128C186.366 577.128 185.886 577.021 185.502 576.808C185.118 576.595 184.83 576.291 184.638 575.896C184.446 575.491 184.35 574.995 184.35 574.408V570.024H183.166C183.028 570.024 182.916 569.992 182.83 569.928C182.745 569.853 182.702 569.752 182.702 569.624C182.702 569.507 182.745 569.416 182.83 569.352C182.916 569.277 183.028 569.24 183.166 569.24H184.35V567.24C184.35 567.069 184.393 566.947 184.478 566.872C184.564 566.787 184.686 566.744 184.846 566.744C184.996 566.744 185.113 566.787 185.198 566.872C185.284 566.947 185.326 567.069 185.326 567.24V569.24H187.486C187.636 569.24 187.748 569.277 187.822 569.352C187.897 569.416 187.934 569.507 187.934 569.624C187.934 569.752 187.897 569.853 187.822 569.928C187.748 569.992 187.636 570.024 187.486 570.024H185.326V574.28C185.326 574.931 185.46 575.427 185.726 575.768C185.993 576.109 186.436 576.28 187.054 576.28C187.268 576.28 187.444 576.259 187.582 576.216C187.732 576.163 187.854 576.136 187.95 576.136C188.025 576.136 188.089 576.168 188.142 576.232C188.206 576.296 188.238 576.397 188.238 576.536C188.238 576.621 188.217 576.707 188.174 576.792C188.142 576.877 188.078 576.931 187.982 576.952C187.865 576.995 187.705 577.032 187.502 577.064C187.3 577.107 187.113 577.128 186.942 577.128Z" fill="#26272B"/>
<path d="M426 566L424.59 567.41L429.17 572L424.59 576.59L426 578L432 572L426 566Z" fill="#A0A0AB"/>
<mask id="path-25-inside-3_13948_4985" fill="white">
<path d="M24 600H456V656H24V600Z"/>
</mask>
<path d="M24 600H456V656H24V600Z" fill="white"/>
<path d="M456 655H24V657H456V655Z" fill="#E4E4E7" mask="url(#path-25-inside-3_13948_4985)"/>
<g clip-path="url(#clip3_13948_4985)">
<path d="M54 618H46C44.9 618 44.01 618.9 44.01 620L44 636C44 637.1 44.89 638 45.99 638H58C59.1 638 60 637.1 60 636V624L54 618ZM56 634H48V632H56V634ZM56 630H48V628H56V630ZM53 625V619.5L58.5 625H53Z" fill="#26272B"/>
</g>
<g clip-path="url(#clip4_13948_4985)">
<path d="M84.752 633.096C84.592 633.096 84.4693 633.053 84.384 632.968C84.2987 632.872 84.256 632.744 84.256 632.584V622.6H80.432C80.2827 622.6 80.1653 622.557 80.08 622.472C79.9947 622.387 79.952 622.28 79.952 622.152C79.952 622.013 79.9947 621.907 80.08 621.832C80.1653 621.757 80.2827 621.72 80.432 621.72H89.088C89.2373 621.72 89.3493 621.757 89.424 621.832C89.5093 621.907 89.552 622.013 89.552 622.152C89.552 622.291 89.5093 622.403 89.424 622.488C89.3493 622.563 89.2373 622.6 89.088 622.6H85.248V632.584C85.248 632.744 85.2053 632.872 85.12 632.968C85.0453 633.053 84.9227 633.096 84.752 633.096ZM92.9373 633.128C92.1373 633.128 91.4493 632.968 90.8733 632.648C90.2973 632.328 89.8546 631.869 89.5453 631.272C89.2359 630.675 89.0813 629.965 89.0813 629.144C89.0813 628.333 89.2359 627.629 89.5453 627.032C89.8546 626.424 90.2813 625.949 90.8253 625.608C91.3799 625.267 92.0146 625.096 92.7293 625.096C93.2519 625.096 93.7106 625.187 94.1053 625.368C94.5106 625.539 94.8519 625.789 95.1293 626.12C95.4173 626.44 95.6359 626.835 95.7853 627.304C95.9346 627.763 96.0093 628.285 96.0093 628.872C96.0093 629.021 95.9666 629.133 95.8813 629.208C95.8066 629.283 95.6999 629.32 95.5613 629.32H89.7853V628.6H95.4013L95.1453 628.808C95.1453 628.189 95.0546 627.667 94.8733 627.24C94.6919 626.803 94.4199 626.467 94.0573 626.232C93.7053 625.997 93.2679 625.88 92.7453 625.88C92.1586 625.88 91.6626 626.019 91.2573 626.296C90.8519 626.563 90.5479 626.936 90.3453 627.416C90.1426 627.885 90.0413 628.429 90.0413 629.048V629.128C90.0413 630.152 90.2919 630.941 90.7933 631.496C91.2946 632.04 91.9986 632.312 92.9053 632.312C93.2999 632.312 93.6786 632.259 94.0413 632.152C94.4146 632.045 94.7773 631.864 95.1293 631.608C95.2359 631.533 95.3373 631.496 95.4333 631.496C95.5399 631.496 95.6253 631.523 95.6893 631.576C95.7639 631.629 95.8119 631.699 95.8333 631.784C95.8653 631.859 95.8599 631.944 95.8173 632.04C95.7853 632.125 95.7159 632.205 95.6093 632.28C95.2679 632.557 94.8573 632.771 94.3773 632.92C93.8973 633.059 93.4173 633.128 92.9373 633.128ZM98.4948 633.096C98.3348 633.096 98.2121 633.053 98.1268 632.968C98.0414 632.883 97.9988 632.76 97.9988 632.6V625.64C97.9988 625.469 98.0414 625.341 98.1268 625.256C98.2121 625.171 98.3348 625.128 98.4948 625.128C98.6441 625.128 98.7561 625.171 98.8307 625.256C98.9161 625.341 98.9588 625.469 98.9588 625.64V627.064H98.7988C98.9908 626.435 99.3321 625.949 99.8228 625.608C100.324 625.267 100.921 625.091 101.615 625.08C101.743 625.069 101.849 625.096 101.935 625.16C102.02 625.224 102.063 625.325 102.063 625.464C102.073 625.613 102.041 625.731 101.967 625.816C101.892 625.891 101.769 625.939 101.599 625.96L101.375 625.976C100.617 626.051 100.031 626.301 99.6148 626.728C99.1988 627.155 98.9908 627.731 98.9908 628.456V632.6C98.9908 632.76 98.9481 632.883 98.8628 632.968C98.7881 633.053 98.6654 633.096 98.4948 633.096ZM103.996 633.096C103.836 633.096 103.713 633.053 103.628 632.968C103.542 632.883 103.5 632.76 103.5 632.6V625.64C103.5 625.469 103.542 625.341 103.628 625.256C103.713 625.171 103.836 625.128 103.996 625.128C104.145 625.128 104.257 625.171 104.332 625.256C104.417 625.341 104.46 625.469 104.46 625.64V627.16L104.284 627.048C104.476 626.419 104.801 625.939 105.26 625.608C105.718 625.267 106.268 625.096 106.908 625.096C107.59 625.096 108.134 625.261 108.54 625.592C108.956 625.923 109.228 626.419 109.356 627.08H109.116C109.297 626.483 109.633 626.003 110.124 625.64C110.625 625.277 111.212 625.096 111.884 625.096C112.46 625.096 112.934 625.208 113.308 625.432C113.692 625.656 113.98 625.992 114.172 626.44C114.364 626.877 114.46 627.432 114.46 628.104V632.6C114.46 632.76 114.417 632.883 114.332 632.968C114.246 633.053 114.124 633.096 113.964 633.096C113.814 633.096 113.697 633.053 113.612 632.968C113.526 632.883 113.484 632.76 113.484 632.6V628.184C113.484 627.405 113.345 626.84 113.068 626.488C112.801 626.125 112.348 625.944 111.708 625.944C111.025 625.944 110.481 626.184 110.076 626.664C109.67 627.133 109.468 627.773 109.468 628.584V632.6C109.468 632.76 109.425 632.883 109.34 632.968C109.254 633.053 109.137 633.096 108.988 633.096C108.828 633.096 108.705 633.053 108.62 632.968C108.534 632.883 108.492 632.76 108.492 632.6V628.184C108.492 627.405 108.353 626.84 108.076 626.488C107.809 626.125 107.361 625.944 106.732 625.944C106.038 625.944 105.489 626.184 105.084 626.664C104.678 627.133 104.476 627.773 104.476 628.584V632.6C104.476 632.931 104.316 633.096 103.996 633.096ZM119.542 633.128C119.062 633.128 118.582 633.064 118.102 632.936C117.633 632.808 117.185 632.589 116.758 632.28C116.673 632.227 116.614 632.163 116.582 632.088C116.561 632.003 116.556 631.917 116.566 631.832C116.588 631.747 116.625 631.677 116.678 631.624C116.742 631.56 116.817 631.523 116.902 631.512C116.988 631.501 117.078 631.528 117.174 631.592C117.59 631.869 117.996 632.061 118.39 632.168C118.785 632.275 119.18 632.328 119.574 632.328C120.225 632.328 120.721 632.205 121.062 631.96C121.404 631.715 121.574 631.384 121.574 630.968C121.574 630.627 121.462 630.365 121.238 630.184C121.025 629.992 120.673 629.837 120.182 629.72L118.79 629.4C118.118 629.251 117.622 629.011 117.302 628.68C116.982 628.339 116.822 627.901 116.822 627.368C116.822 626.909 116.94 626.509 117.174 626.168C117.42 625.827 117.761 625.565 118.198 625.384C118.646 625.192 119.158 625.096 119.734 625.096C120.204 625.096 120.652 625.165 121.078 625.304C121.505 625.443 121.878 625.656 122.198 625.944C122.284 626.008 122.337 626.083 122.358 626.168C122.39 626.253 122.39 626.339 122.358 626.424C122.337 626.499 122.294 626.563 122.23 626.616C122.166 626.669 122.092 626.696 122.006 626.696C121.921 626.696 121.83 626.664 121.734 626.6C121.425 626.365 121.1 626.195 120.758 626.088C120.417 625.971 120.07 625.912 119.718 625.912C119.1 625.912 118.62 626.04 118.278 626.296C117.948 626.552 117.782 626.899 117.782 627.336C117.782 627.667 117.884 627.933 118.086 628.136C118.3 628.339 118.63 628.493 119.078 628.6L120.47 628.92C121.164 629.08 121.681 629.32 122.022 629.64C122.364 629.949 122.534 630.371 122.534 630.904C122.534 631.587 122.262 632.131 121.718 632.536C121.185 632.931 120.46 633.128 119.542 633.128ZM131.902 633.128C131.177 633.128 130.553 633.016 130.03 632.792C129.508 632.557 129.108 632.237 128.83 631.832C128.564 631.416 128.43 630.925 128.43 630.36C128.43 630.008 128.478 629.683 128.574 629.384C128.67 629.085 128.814 628.803 129.006 628.536C129.209 628.259 129.46 627.987 129.758 627.72C130.068 627.453 130.425 627.181 130.83 626.904L131.342 626.552L131.214 626.76C130.67 626.163 130.292 625.661 130.078 625.256C129.876 624.84 129.774 624.419 129.774 623.992C129.774 623.512 129.881 623.096 130.094 622.744C130.318 622.381 130.628 622.099 131.022 621.896C131.417 621.693 131.881 621.592 132.414 621.592C133.086 621.592 133.646 621.789 134.094 622.184C134.553 622.568 134.782 623.101 134.782 623.784C134.782 624.157 134.708 624.509 134.558 624.84C134.42 625.16 134.174 625.491 133.822 625.832C133.47 626.163 132.969 626.536 132.318 626.952L132.35 626.68L135.47 630.232H135.246C135.396 629.965 135.529 629.656 135.646 629.304C135.774 628.952 135.876 628.568 135.95 628.152C136.025 627.725 136.073 627.283 136.094 626.824C136.116 626.664 136.164 626.547 136.238 626.472C136.313 626.397 136.425 626.36 136.574 626.36C136.713 626.36 136.82 626.403 136.894 626.488C136.969 626.573 136.996 626.696 136.974 626.856C136.953 627.411 136.889 627.933 136.782 628.424C136.676 628.915 136.542 629.368 136.382 629.784C136.222 630.2 136.036 630.584 135.822 630.936L135.806 630.6L137.422 632.44C137.529 632.547 137.577 632.653 137.566 632.76C137.566 632.867 137.524 632.947 137.438 633C137.364 633.064 137.262 633.096 137.134 633.096C137.017 633.096 136.921 633.075 136.846 633.032C136.782 633 136.702 632.931 136.606 632.824L135.278 631.304H135.55C135.124 631.88 134.596 632.328 133.966 632.648C133.337 632.968 132.649 633.128 131.902 633.128ZM131.934 632.296C132.585 632.296 133.166 632.157 133.678 631.88C134.19 631.592 134.628 631.176 134.99 630.632V631L131.55 627.144L131.902 627.176L131.406 627.512C130.905 627.853 130.505 628.168 130.206 628.456C129.918 628.733 129.71 629.021 129.582 629.32C129.465 629.608 129.406 629.939 129.406 630.312C129.406 630.931 129.62 631.416 130.046 631.768C130.473 632.12 131.102 632.296 131.934 632.296ZM132.414 622.392C131.913 622.392 131.502 622.541 131.182 622.84C130.873 623.128 130.718 623.507 130.718 623.976C130.718 624.211 130.756 624.435 130.83 624.648C130.905 624.851 131.038 625.085 131.23 625.352C131.422 625.608 131.689 625.933 132.03 626.328L131.726 626.376C132.27 626.013 132.697 625.699 133.006 625.432C133.326 625.155 133.556 624.893 133.694 624.648C133.833 624.392 133.902 624.131 133.902 623.864C133.902 623.416 133.764 623.059 133.486 622.792C133.209 622.525 132.852 622.392 132.414 622.392ZM146.729 633.128C145.972 633.128 145.321 632.963 144.777 632.632C144.233 632.291 143.812 631.816 143.513 631.208C143.225 630.589 143.081 629.875 143.081 629.064C143.081 628.445 143.161 627.896 143.321 627.416C143.492 626.925 143.732 626.509 144.041 626.168C144.361 625.827 144.745 625.565 145.193 625.384C145.652 625.192 146.164 625.096 146.729 625.096C147.124 625.096 147.529 625.165 147.945 625.304C148.361 625.432 148.74 625.651 149.081 625.96C149.156 626.024 149.204 626.099 149.225 626.184C149.247 626.269 149.241 626.355 149.209 626.44C149.177 626.515 149.129 626.579 149.065 626.632C149.001 626.675 148.921 626.701 148.825 626.712C148.74 626.712 148.649 626.669 148.553 626.584C148.255 626.339 147.951 626.173 147.641 626.088C147.343 625.992 147.049 625.944 146.761 625.944C146.324 625.944 145.94 626.013 145.609 626.152C145.279 626.291 144.996 626.493 144.761 626.76C144.537 627.027 144.367 627.357 144.249 627.752C144.132 628.136 144.073 628.579 144.073 629.08C144.073 630.083 144.303 630.872 144.761 631.448C145.231 632.013 145.897 632.296 146.761 632.296C147.049 632.296 147.343 632.253 147.641 632.168C147.951 632.072 148.255 631.901 148.553 631.656C148.649 631.571 148.74 631.533 148.825 631.544C148.921 631.544 149.001 631.571 149.065 631.624C149.129 631.667 149.172 631.731 149.193 631.816C149.225 631.891 149.231 631.971 149.209 632.056C149.188 632.141 149.14 632.216 149.065 632.28C148.735 632.589 148.361 632.808 147.945 632.936C147.529 633.064 147.124 633.128 146.729 633.128ZM153.837 633.128C153.111 633.128 152.482 632.963 151.949 632.632C151.415 632.301 150.999 631.837 150.701 631.24C150.413 630.643 150.269 629.933 150.269 629.112C150.269 628.504 150.349 627.955 150.509 627.464C150.679 626.973 150.919 626.552 151.229 626.2C151.549 625.837 151.927 625.565 152.365 625.384C152.813 625.192 153.303 625.096 153.837 625.096C154.573 625.096 155.207 625.261 155.741 625.592C156.274 625.923 156.685 626.392 156.973 627C157.271 627.597 157.421 628.301 157.421 629.112C157.421 629.731 157.335 630.285 157.165 630.776C157.005 631.267 156.765 631.688 156.445 632.04C156.135 632.392 155.762 632.664 155.325 632.856C154.887 633.037 154.391 633.128 153.837 633.128ZM153.837 632.312C154.37 632.312 154.829 632.189 155.213 631.944C155.607 631.688 155.906 631.32 156.109 630.84C156.322 630.36 156.429 629.784 156.429 629.112C156.429 628.099 156.194 627.315 155.725 626.76C155.266 626.205 154.637 625.928 153.837 625.928C153.314 625.928 152.855 626.056 152.461 626.312C152.077 626.557 151.778 626.92 151.565 627.4C151.362 627.869 151.261 628.44 151.261 629.112C151.261 630.136 151.495 630.925 151.965 631.48C152.434 632.035 153.058 632.312 153.837 632.312ZM159.995 633.096C159.835 633.096 159.712 633.053 159.627 632.968C159.541 632.883 159.499 632.76 159.499 632.6V625.64C159.499 625.469 159.541 625.341 159.627 625.256C159.712 625.171 159.835 625.128 159.995 625.128C160.144 625.128 160.256 625.171 160.331 625.256C160.416 625.341 160.459 625.469 160.459 625.64V627.144L160.283 627.048C160.496 626.408 160.859 625.923 161.371 625.592C161.893 625.261 162.491 625.096 163.163 625.096C163.781 625.096 164.293 625.208 164.699 625.432C165.115 625.645 165.424 625.976 165.627 626.424C165.829 626.872 165.931 627.432 165.931 628.104V632.6C165.931 632.76 165.888 632.883 165.803 632.968C165.717 633.053 165.6 633.096 165.451 633.096C165.291 633.096 165.168 633.053 165.083 632.968C164.997 632.883 164.955 632.76 164.955 632.6V628.184C164.955 627.405 164.8 626.84 164.491 626.488C164.181 626.125 163.691 625.944 163.019 625.944C162.251 625.944 161.632 626.184 161.163 626.664C160.704 627.133 160.475 627.768 160.475 628.568V632.6C160.475 632.931 160.315 633.096 159.995 633.096ZM171.412 633.128C170.719 633.128 170.111 632.968 169.588 632.648C169.076 632.317 168.676 631.853 168.388 631.256C168.111 630.648 167.972 629.933 167.972 629.112C167.972 628.291 168.111 627.581 168.388 626.984C168.665 626.387 169.06 625.923 169.572 625.592C170.095 625.261 170.708 625.096 171.412 625.096C172.137 625.096 172.756 625.283 173.268 625.656C173.78 626.029 174.121 626.531 174.292 627.16H174.116V622.12C174.116 621.949 174.159 621.827 174.244 621.752C174.329 621.667 174.447 621.624 174.596 621.624C174.756 621.624 174.879 621.667 174.964 621.752C175.049 621.827 175.092 621.949 175.092 622.12V632.6C175.092 632.76 175.049 632.883 174.964 632.968C174.879 633.053 174.761 633.096 174.612 633.096C174.452 633.096 174.329 633.053 174.244 632.968C174.159 632.883 174.116 632.76 174.116 632.6V630.952L174.292 631.064C174.121 631.693 173.78 632.195 173.268 632.568C172.756 632.941 172.137 633.128 171.412 633.128ZM171.54 632.312C172.073 632.312 172.532 632.189 172.916 631.944C173.311 631.688 173.609 631.32 173.812 630.84C174.025 630.36 174.132 629.784 174.132 629.112C174.132 628.099 173.897 627.315 173.428 626.76C172.969 626.205 172.34 625.928 171.54 625.928C171.017 625.928 170.559 626.056 170.164 626.312C169.78 626.557 169.481 626.92 169.268 627.4C169.065 627.869 168.964 628.44 168.964 629.112C168.964 630.136 169.199 630.925 169.668 631.48C170.137 632.035 170.761 632.312 171.54 632.312ZM178.151 633.064C177.991 633.064 177.868 633.016 177.783 632.92C177.698 632.824 177.655 632.696 177.655 632.536V625.688C177.655 625.517 177.698 625.389 177.783 625.304C177.868 625.219 177.991 625.176 178.151 625.176C178.3 625.176 178.418 625.219 178.503 625.304C178.588 625.389 178.631 625.517 178.631 625.688V632.536C178.631 632.696 178.588 632.824 178.503 632.92C178.428 633.016 178.311 633.064 178.151 633.064ZM178.151 623.24C177.927 623.24 177.751 623.181 177.623 623.064C177.506 622.947 177.447 622.781 177.447 622.568C177.447 622.355 177.506 622.195 177.623 622.088C177.751 621.971 177.927 621.912 178.151 621.912C178.375 621.912 178.546 621.971 178.663 622.088C178.791 622.195 178.855 622.355 178.855 622.568C178.855 622.781 178.791 622.947 178.663 623.064C178.546 623.181 178.375 623.24 178.151 623.24ZM184.13 633.128C183.554 633.128 183.074 633.021 182.69 632.808C182.306 632.595 182.018 632.291 181.826 631.896C181.634 631.491 181.538 630.995 181.538 630.408V626.024H180.354C180.215 626.024 180.103 625.992 180.018 625.928C179.933 625.853 179.89 625.752 179.89 625.624C179.89 625.507 179.933 625.416 180.018 625.352C180.103 625.277 180.215 625.24 180.354 625.24H181.538V623.24C181.538 623.069 181.581 622.947 181.666 622.872C181.751 622.787 181.874 622.744 182.034 622.744C182.183 622.744 182.301 622.787 182.386 622.872C182.471 622.947 182.514 623.069 182.514 623.24V625.24H184.674C184.823 625.24 184.935 625.277 185.01 625.352C185.085 625.416 185.122 625.507 185.122 625.624C185.122 625.752 185.085 625.853 185.01 625.928C184.935 625.992 184.823 626.024 184.674 626.024H182.514V630.28C182.514 630.931 182.647 631.427 182.914 631.768C183.181 632.109 183.623 632.28 184.242 632.28C184.455 632.28 184.631 632.259 184.77 632.216C184.919 632.163 185.042 632.136 185.138 632.136C185.213 632.136 185.277 632.168 185.33 632.232C185.394 632.296 185.426 632.397 185.426 632.536C185.426 632.621 185.405 632.707 185.362 632.792C185.33 632.877 185.266 632.931 185.17 632.952C185.053 632.995 184.893 633.032 184.69 633.064C184.487 633.107 184.301 633.128 184.13 633.128ZM187.104 633.064C186.944 633.064 186.821 633.016 186.736 632.92C186.651 632.824 186.608 632.696 186.608 632.536V625.688C186.608 625.517 186.651 625.389 186.736 625.304C186.821 625.219 186.944 625.176 187.104 625.176C187.253 625.176 187.371 625.219 187.456 625.304C187.541 625.389 187.584 625.517 187.584 625.688V632.536C187.584 632.696 187.541 632.824 187.456 632.92C187.381 633.016 187.264 633.064 187.104 633.064ZM187.104 623.24C186.88 623.24 186.704 623.181 186.576 623.064C186.459 622.947 186.4 622.781 186.4 622.568C186.4 622.355 186.459 622.195 186.576 622.088C186.704 621.971 186.88 621.912 187.104 621.912C187.328 621.912 187.499 621.971 187.616 622.088C187.744 622.195 187.808 622.355 187.808 622.568C187.808 622.781 187.744 622.947 187.616 623.064C187.499 623.181 187.328 623.24 187.104 623.24ZM193.243 633.128C192.518 633.128 191.888 632.963 191.355 632.632C190.822 632.301 190.406 631.837 190.107 631.24C189.819 630.643 189.675 629.933 189.675 629.112C189.675 628.504 189.755 627.955 189.915 627.464C190.086 626.973 190.326 626.552 190.635 626.2C190.955 625.837 191.334 625.565 191.771 625.384C192.219 625.192 192.71 625.096 193.243 625.096C193.979 625.096 194.614 625.261 195.147 625.592C195.68 625.923 196.091 626.392 196.379 627C196.678 627.597 196.827 628.301 196.827 629.112C196.827 629.731 196.742 630.285 196.571 630.776C196.411 631.267 196.171 631.688 195.851 632.04C195.542 632.392 195.168 632.664 194.731 632.856C194.294 633.037 193.798 633.128 193.243 633.128ZM193.243 632.312C193.776 632.312 194.235 632.189 194.619 631.944C195.014 631.688 195.312 631.32 195.515 630.84C195.728 630.36 195.835 629.784 195.835 629.112C195.835 628.099 195.6 627.315 195.131 626.76C194.672 626.205 194.043 625.928 193.243 625.928C192.72 625.928 192.262 626.056 191.867 626.312C191.483 626.557 191.184 626.92 190.971 627.4C190.768 627.869 190.667 628.44 190.667 629.112C190.667 630.136 190.902 630.925 191.371 631.48C191.84 632.035 192.464 632.312 193.243 632.312ZM199.401 633.096C199.241 633.096 199.118 633.053 199.033 632.968C198.948 632.883 198.905 632.76 198.905 632.6V625.64C198.905 625.469 198.948 625.341 199.033 625.256C199.118 625.171 199.241 625.128 199.401 625.128C199.55 625.128 199.662 625.171 199.737 625.256C199.822 625.341 199.865 625.469 199.865 625.64V627.144L199.689 627.048C199.902 626.408 200.265 625.923 200.777 625.592C201.3 625.261 201.897 625.096 202.569 625.096C203.188 625.096 203.7 625.208 204.105 625.432C204.521 625.645 204.83 625.976 205.033 626.424C205.236 626.872 205.337 627.432 205.337 628.104V632.6C205.337 632.76 205.294 632.883 205.209 632.968C205.124 633.053 205.006 633.096 204.857 633.096C204.697 633.096 204.574 633.053 204.489 632.968C204.404 632.883 204.361 632.76 204.361 632.6V628.184C204.361 627.405 204.206 626.84 203.897 626.488C203.588 626.125 203.097 625.944 202.425 625.944C201.657 625.944 201.038 626.184 200.569 626.664C200.11 627.133 199.881 627.768 199.881 628.568V632.6C199.881 632.931 199.721 633.096 199.401 633.096ZM210.386 633.128C209.906 633.128 209.426 633.064 208.946 632.936C208.477 632.808 208.029 632.589 207.602 632.28C207.517 632.227 207.458 632.163 207.426 632.088C207.405 632.003 207.399 631.917 207.41 631.832C207.431 631.747 207.469 631.677 207.522 631.624C207.586 631.56 207.661 631.523 207.746 631.512C207.831 631.501 207.922 631.528 208.018 631.592C208.434 631.869 208.839 632.061 209.234 632.168C209.629 632.275 210.023 632.328 210.418 632.328C211.069 632.328 211.565 632.205 211.906 631.96C212.247 631.715 212.418 631.384 212.418 630.968C212.418 630.627 212.306 630.365 212.082 630.184C211.869 629.992 211.517 629.837 211.026 629.72L209.634 629.4C208.962 629.251 208.466 629.011 208.146 628.68C207.826 628.339 207.666 627.901 207.666 627.368C207.666 626.909 207.783 626.509 208.018 626.168C208.263 625.827 208.605 625.565 209.042 625.384C209.49 625.192 210.002 625.096 210.578 625.096C211.047 625.096 211.495 625.165 211.922 625.304C212.349 625.443 212.722 625.656 213.042 625.944C213.127 626.008 213.181 626.083 213.202 626.168C213.234 626.253 213.234 626.339 213.202 626.424C213.181 626.499 213.138 626.563 213.074 626.616C213.01 626.669 212.935 626.696 212.85 626.696C212.765 626.696 212.674 626.664 212.578 626.6C212.269 626.365 211.943 626.195 211.602 626.088C211.261 625.971 210.914 625.912 210.562 625.912C209.943 625.912 209.463 626.04 209.122 626.296C208.791 626.552 208.626 626.899 208.626 627.336C208.626 627.667 208.727 627.933 208.93 628.136C209.143 628.339 209.474 628.493 209.922 628.6L211.314 628.92C212.007 629.08 212.525 629.32 212.866 629.64C213.207 629.949 213.378 630.371 213.378 630.904C213.378 631.587 213.106 632.131 212.562 632.536C212.029 632.931 211.303 633.128 210.386 633.128Z" fill="#26272B"/>
</g>
<path d="M426 622L424.59 623.41L429.17 628L424.59 632.59L426 634L432 628L426 622Z" fill="#A0A0AB"/>
</g>
<path d="M24 545H456V543H24V545Z" fill="#E4E4E7" mask="url(#path-17-inside-1_13948_4985)"/>
<defs>
<clipPath id="clip0_13948_4985">
<path d="M160 136C160 91.8172 195.817 56 240 56C284.183 56 320 91.8172 320 136C320 180.183 284.183 216 240 216C195.817 216 160 180.183 160 136Z" fill="white"/>
</clipPath>
<clipPath id="clip1_13948_4985">
<path d="M24 544H456V656H24V544Z" fill="white"/>
</clipPath>
<clipPath id="clip2_13948_4985">
<rect width="24" height="24" fill="white" transform="translate(40 560)"/>
</clipPath>
<clipPath id="clip3_13948_4985">
<rect width="24" height="24" fill="white" transform="translate(40 616)"/>
</clipPath>
<clipPath id="clip4_13948_4985">
<rect width="320" height="24" fill="white" transform="translate(80 616)"/>
</clipPath>
</defs>
</svg>
