<svg width="96" height="96" viewBox="0 0 96 96" fill="none" xmlns="http://www.w3.org/2000/svg">
<g clip-path="url(#clip0_11804_21972)">
<g clip-path="url(#clip1_11804_21972)">
<path d="M0 48C0 21.4903 21.4903 0 48 0C74.5097 0 96 21.4903 96 48C96 74.5097 74.5097 96 48 96C21.4903 96 0 74.5097 0 48Z" fill="#F4F4F5"/>
<path d="M73.3902 44.8131C72.997 22.7586 59.2202 14.9001 47.3967 14.9001C35.5732 14.9001 21.7965 22.7586 21.4032 44.8131C18.5075 46.6819 18.1467 49.9156 18.1467 52.2751C18.1467 55.3886 21.0327 62.3631 25.1342 63.4941L25.2642 63.8126C27.0322 68.2099 31.735 79.9001 47.3967 79.9001C63.0585 79.9001 67.7612 68.2099 69.5325 63.8126L69.6625 63.4941C73.764 62.3599 76.65 55.3886 76.65 52.2751C76.65 49.9156 76.2892 46.6819 73.3902 44.8131Z" fill="#A0A0AB"/>
<path d="M68.525 60.4001C68.219 60.4006 67.9193 60.4871 67.6601 60.6497C67.4009 60.8123 67.1927 61.0446 67.0592 61.3199C66.8654 61.7411 66.6844 62.1682 66.5165 62.6004C64.8232 66.8059 60.8647 76.6501 47.3967 76.6501C33.9287 76.6501 29.9702 66.8059 28.277 62.6004C28.1084 62.1684 27.9274 61.7414 27.7342 61.3199C27.6019 61.0443 27.3944 60.8118 27.1356 60.6491C26.8769 60.4863 26.5774 60.4 26.2717 60.4001C24.2307 60.4001 21.3967 54.7614 21.3967 52.2751C21.3967 48.7944 22.505 47.8031 23.701 47.2506C23.9832 47.1208 24.2222 46.9128 24.3898 46.6513C24.5574 46.3898 24.6466 46.0858 24.6467 45.7751C24.6467 25.4074 36.3987 18.1501 47.3967 18.1501C58.3947 18.1501 70.1467 25.4074 70.1467 45.7751C70.1469 46.0858 70.236 46.3898 70.4036 46.6513C70.5712 46.9128 70.8103 47.1208 71.0925 47.2506C72.295 47.8031 73.4 48.7944 73.4 52.2751C73.4 54.7614 70.5627 60.4001 68.525 60.4001Z" fill="white" fill-opacity="0.5"/>
<path d="M23.4962 54.3746C23.4962 50.8939 24.6045 49.9026 25.8005 49.3501C26.0824 49.22 26.3212 49.0119 26.4888 48.7505C26.6564 48.4891 26.7457 48.1852 26.7462 47.8746C26.7462 27.5069 38.4982 20.2496 49.4962 20.2496C54.4947 20.2496 59.6395 21.7739 63.7767 25.3229C59.3762 20.2626 53.2857 18.1501 47.3967 18.1501C36.3987 18.1501 24.6467 25.4074 24.6467 45.7751C24.6466 46.0858 24.5574 46.3898 24.3898 46.6513C24.2222 46.9128 23.9832 47.1208 23.701 47.2506C22.505 47.8031 21.3967 48.7944 21.3967 52.2751C21.3967 54.5404 23.7432 59.3731 25.7062 60.2246C24.4842 58.3689 23.4962 55.8339 23.4962 54.3746Z" fill="white" fill-opacity="0.3"/>
<path d="M71.2355 47.3254C71.5995 48.0729 71.84 49.1259 71.84 50.7152C71.84 53.2014 69.006 58.8402 66.965 58.8402C66.659 58.8406 66.3593 58.9271 66.1001 59.0897C65.8409 59.2524 65.6327 59.4846 65.4992 59.7599C65.3054 60.1812 65.1244 60.6082 64.9565 61.0404C63.2632 65.2459 59.3047 75.0902 45.8367 75.0902C39.9022 75.0902 35.817 73.1759 32.9537 70.6767C35.8332 73.8942 40.2792 76.6502 47.3967 76.6502C60.8647 76.6502 64.8232 66.8059 66.5165 62.6004C66.731 62.0674 66.9097 61.6319 67.0592 61.3199C67.1921 61.0441 67.4002 60.8115 67.6595 60.6487C67.9188 60.486 68.2188 60.3999 68.525 60.4002C70.566 60.4002 73.4 54.7614 73.4 52.2752C73.4 48.9342 72.3795 47.8942 71.2355 47.3254Z" fill="black" fill-opacity="0.1"/>
<path d="M36.0218 50.6501C37.8168 50.6501 39.2718 49.1951 39.2718 47.4001C39.2718 45.6052 37.8168 44.1501 36.0218 44.1501C34.2269 44.1501 32.7719 45.6052 32.7719 47.4001C32.7719 49.1951 34.2269 50.6501 36.0218 50.6501Z" fill="black" fill-opacity="0.7"/>
<path d="M58.7717 50.6501C60.5667 50.6501 62.0217 49.1951 62.0217 47.4001C62.0217 45.6052 60.5667 44.1501 58.7717 44.1501C56.9768 44.1501 55.5217 45.6052 55.5217 47.4001C55.5217 49.1951 56.9768 50.6501 58.7717 50.6501Z" fill="black" fill-opacity="0.7"/>
</g>
<path d="M80 64.5C88.5604 64.5 95.5 71.4396 95.5 80C95.5 88.5604 88.5604 95.5 80 95.5C71.4396 95.5 64.5 88.5604 64.5 80C64.5 71.4396 71.4396 64.5 80 64.5Z" fill="#66C61C"/>
<path d="M80 64.5C88.5604 64.5 95.5 71.4396 95.5 80C95.5 88.5604 88.5604 95.5 80 95.5C71.4396 95.5 64.5 88.5604 64.5 80C64.5 71.4396 71.4396 64.5 80 64.5Z" stroke="#4CA30D"/>
<path d="M83.55 73.55L79 69V72.07C75.06 72.56 72 75.92 72 80C72 84.08 75.05 87.44 79 87.93V85.91C76.16 85.43 74 82.97 74 80C74 77.03 76.16 74.57 79 74.09V78L83.55 73.55ZM87.93 79C87.76 77.61 87.21 76.27 86.31 75.11L84.89 76.53C85.43 77.28 85.77 78.13 85.91 79H87.93ZM81 85.9V87.92C82.39 87.75 83.74 87.21 84.9 86.31L83.46 84.87C82.71 85.41 81.87 85.76 81 85.9ZM84.89 83.48L86.31 84.89C87.21 83.73 87.76 82.39 87.93 81H85.91C85.77 81.87 85.43 82.72 84.89 83.48Z" fill="white"/>
</g>
<defs>
<clipPath id="clip0_11804_21972">
<rect width="96" height="96" fill="white"/>
</clipPath>
<clipPath id="clip1_11804_21972">
<path d="M0 48C0 21.4903 21.4903 0 48 0C74.5097 0 96 21.4903 96 48C96 74.5097 74.5097 96 48 96C21.4903 96 0 74.5097 0 48Z" fill="white"/>
</clipPath>
</defs>
</svg>
