<svg width="56" height="56" viewBox="0 0 56 56" fill="none" xmlns="http://www.w3.org/2000/svg">
<path d="M26.75 43H19.6667C18.75 43 17.9653 42.6736 17.3125 42.0208C16.6597 41.3681 16.3334 40.5833 16.3334 39.6667V18H14.6667V14.6667H23V13H33V14.6667H41.3334V18H39.6667V25.1667C39.1945 25.0278 38.6459 24.9097 38.0209 24.8125C37.3959 24.7153 36.8334 24.6667 36.3334 24.6667V18H19.6667V39.6667H25.1667C25.3334 40.25 25.5556 40.8264 25.8334 41.3958C26.1111 41.9653 26.4167 42.5 26.75 43ZM23 36.3333H24.6667C24.6667 34.5833 24.9445 33.1458 25.5 32.0208L26.3334 30.3333V21.3333H23V36.3333ZM29.6667 26.75C30.1389 26.4444 30.6736 26.1389 31.2709 25.8333C31.8681 25.5278 32.4445 25.3056 33 25.1667V21.3333H29.6667V26.75Z" fill="white"/>
<path fill-rule="evenodd" clip-rule="evenodd" d="M36.3333 44.6667C34.0278 44.6667 32.0625 43.8542 30.4375 42.2292C28.8125 40.6042 28 38.6389 28 36.3333C28 34.0556 28.8056 32.0972 30.4167 30.4583C32.0278 28.8194 34 28 36.3333 28C38.6389 28 40.6042 28.8125 42.2292 30.4375C43.8542 32.0625 44.6667 34.0278 44.6667 36.3333C44.6667 38.6389 43.8542 40.6042 42.2292 42.2292C40.6042 43.8542 38.6389 44.6667 36.3333 44.6667ZM35.7917 38.2228H37.4584V31.3333H35.7917V38.2228ZM36.6251 41.3333C36.8473 41.3333 37.0417 41.25 37.2084 41.0833C37.3751 40.9167 37.4584 40.7222 37.4584 40.5C37.4584 40.2778 37.3751 40.0833 37.2084 39.9167C37.0417 39.75 36.8473 39.6667 36.6251 39.6667C36.4029 39.6667 36.2084 39.75 36.0417 39.9167C35.8751 40.0833 35.7917 40.2778 35.7917 40.5C35.7917 40.7222 35.8751 40.9167 36.0417 41.0833C36.2084 41.25 36.4029 41.3333 36.6251 41.3333Z" fill="white"/>
</svg>
