<svg width="91" height="107" viewBox="0 0 91 107" fill="none" xmlns="http://www.w3.org/2000/svg">
<g filter="url(#filter0_d_11804_21956)">
<path d="M32.3334 53.3333C32.3334 45.9695 38.3029 40 45.6667 40C53.0305 40 59 45.9695 59 53.3333C59 60.6971 53.0305 66.6667 45.6667 66.6667C38.3029 66.6667 32.3334 60.6971 32.3334 53.3333Z" fill="white"/>
</g>
<path fill-rule="evenodd" clip-rule="evenodd" d="M76.0671 26.5653L76.0696 26.5819C78.1374 40.7983 70.5441 53.3158 58.783 58.9299C57.8571 59.4283 57.344 59.9217 57.0322 60.6147C57.0128 60.6577 56.9924 60.7003 56.9711 60.7425L50.4535 73.6223L50.4468 73.6357L48.2788 77.9719C47.7489 79.0316 46.6624 79.6977 45.4776 79.6892C44.2928 79.6806 43.2161 78.999 42.7015 77.9317L40.6125 73.599L34.1944 60.6856C33.7698 59.9 33.115 59.3223 32.5889 59.1057C32.5318 59.0822 32.4755 59.057 32.4199 59.0301C22.1178 54.0508 14.665 43.5424 14.665 31.1456C14.665 13.0102 30.3778 -1.41748 48.8473 0.637506C62.7103 1.95049 73.9955 12.8409 76.0671 26.5653Z" fill="white"/>
<path fill-rule="evenodd" clip-rule="evenodd" d="M57.3835 56.1554C68.0243 51.1068 74.8592 39.8447 72.9951 27.0292C71.1311 14.6796 60.9563 4.89324 48.5291 3.72819C31.9078 1.86412 17.7719 14.835 17.7719 31.1457C17.7719 42.2525 24.4515 51.7282 33.7719 56.2331C35.0922 56.7767 36.2573 57.9418 36.9563 59.2622L43.4029 72.2331L45.5 76.5826L47.6748 72.2331L54.199 59.3399C54.8981 57.7865 56.0631 56.8544 57.3835 56.1554ZM45.5 46.0582C53.3447 46.0582 59.7913 39.6893 59.7913 31.767C59.7913 23.9223 53.4223 17.4757 45.5 17.4757C37.6553 17.4757 31.2087 23.8447 31.2087 31.767C31.2087 39.6116 37.5777 46.0582 45.5 46.0582Z" fill="#66C61C"/>
<path opacity="0.1" d="M57.3058 56.0777C55.9854 56.7767 54.8204 57.7087 54.1213 59.2621L47.6747 72.233L45.5 76.5825L43.3252 72.233L42.7815 70.9903L48.6844 59.2621C49.3058 57.7864 50.5485 56.7767 51.8689 56.0777C62.5097 51.1068 69.3446 39.767 67.4806 26.9515C65.6165 14.6796 55.5194 4.81553 43.0145 3.65048C42.9369 3.65048 42.7815 3.65048 42.7039 3.65048C44.6456 3.41747 46.5874 3.49514 48.6068 3.65048C61.1116 4.81553 71.2087 14.6019 73.0728 26.9515C74.7815 39.767 67.9466 51.1068 57.3058 56.0777Z" fill="black"/>
<path d="M43.5582 36.8156C43.3252 36.8156 43.1699 36.7379 43.0145 36.5826L38.3543 31.9224C38.0437 31.6117 38.0437 31.1457 38.3543 30.835C38.665 30.5243 39.131 30.5243 39.4417 30.835L43.5582 34.9515L51.4806 27.0292C51.7912 26.7185 52.2573 26.7185 52.5679 27.0292C52.8786 27.3398 52.8786 27.8059 52.5679 28.1165L44.1019 36.5826C44.0243 36.7379 43.7912 36.8156 43.5582 36.8156Z" fill="#66C61C"/>
<path fill-rule="evenodd" clip-rule="evenodd" d="M43.0146 36.5825C43.1699 36.7378 43.3253 36.8155 43.5583 36.8155C43.7913 36.8155 44.0243 36.7378 44.102 36.5825L52.568 28.1165C52.8787 27.8058 52.8787 27.3398 52.568 27.0291C52.2573 26.7184 51.7913 26.7184 51.4806 27.0291L43.5583 34.9514L39.4418 30.8349C39.1311 30.5242 38.6651 30.5242 38.3544 30.8349C38.0437 31.1456 38.0437 31.6116 38.3544 31.9223L43.0146 36.5825ZM43.5583 32.7546L40.5402 29.7365C39.6229 28.8192 38.1733 28.8192 37.256 29.7365C36.3387 30.6538 36.3387 32.1034 37.256 33.0207L41.9162 37.6809C42.0855 37.8503 42.3166 38.0391 42.6264 38.1767C42.9429 38.3174 43.2605 38.3689 43.5583 38.3689C43.8325 38.3689 44.151 38.3252 44.4653 38.1995C44.6993 38.1059 45.0362 37.9222 45.301 37.5803L53.6664 29.2149C54.5837 28.2976 54.5837 26.848 53.6664 25.9307C52.7491 25.0133 51.2995 25.0133 50.3822 25.9307L43.5583 32.7546Z" fill="#66C61C"/>
<defs>
<filter id="filter0_d_11804_21956" x="0.333374" y="16" width="90.6666" height="90.6667" filterUnits="userSpaceOnUse" color-interpolation-filters="sRGB">
<feFlood flood-opacity="0" result="BackgroundImageFix"/>
<feColorMatrix in="SourceAlpha" type="matrix" values="0 0 0 0 0 0 0 0 0 0 0 0 0 0 0 0 0 0 127 0" result="hardAlpha"/>
<feMorphology radius="8" operator="dilate" in="SourceAlpha" result="effect1_dropShadow_11804_21956"/>
<feOffset dy="8"/>
<feGaussianBlur stdDeviation="12"/>
<feColorMatrix type="matrix" values="0 0 0 0 0 0 0 0 0 0 0 0 0 0 0 0 0 0 0.12 0"/>
<feBlend mode="normal" in2="BackgroundImageFix" result="effect1_dropShadow_11804_21956"/>
<feBlend mode="normal" in="SourceGraphic" in2="effect1_dropShadow_11804_21956" result="shape"/>
</filter>
</defs>
</svg>
