<svg width="160" height="174" viewBox="0 0 160 174" fill="none" xmlns="http://www.w3.org/2000/svg">
<g filter="url(#filter0_d_11805_22296)">
<path d="M52.6667 106.667C52.6667 91.9391 64.6058 80 79.3334 80C94.0609 80 106 91.9391 106 106.667C106 121.394 94.0609 133.333 79.3334 133.333C64.6058 133.333 52.6667 121.394 52.6667 106.667Z" fill="white"/>
</g>
<path fill-rule="evenodd" clip-rule="evenodd" d="M140.634 53.1309L140.639 53.164C144.775 81.5969 129.588 106.632 106.066 117.86C104.214 118.857 103.188 119.844 102.564 121.23C102.526 121.316 102.485 121.401 102.442 121.485L89.407 147.245L89.3936 147.272L85.0575 155.944C83.9978 158.063 81.8248 159.396 79.4552 159.379C77.0856 159.362 74.932 157.998 73.9029 155.864L69.7249 147.198L56.8888 121.371C56.0396 119.8 54.73 118.645 53.6778 118.212C53.5636 118.165 53.4508 118.114 53.3396 118.061C32.7355 108.102 17.83 87.085 17.83 62.2913C17.83 26.0206 49.2555 -2.83471 86.1946 1.27526C113.92 3.90122 136.491 25.682 140.634 53.1309Z" fill="white"/>
<path fill-rule="evenodd" clip-rule="evenodd" d="M103.267 112.311C124.549 102.214 138.218 79.6894 134.49 54.0583C130.762 29.3593 110.413 9.78648 85.5583 7.45639C52.3155 3.72823 24.0437 29.67 24.0437 62.2913C24.0437 84.5049 37.4029 103.456 56.0437 112.466C58.6845 113.553 61.0146 115.884 62.4126 118.524L75.3058 144.466L79.5 153.165L83.8495 144.466L96.8981 118.68C98.2961 115.573 100.626 113.709 103.267 112.311ZM79.5 92.1165C95.1893 92.1165 108.083 79.3786 108.083 63.534C108.083 47.8447 95.3447 34.9514 79.5 34.9514C63.8107 34.9514 50.9175 47.6893 50.9175 63.534C50.9175 79.2233 63.6554 92.1165 79.5 92.1165Z" fill="#66C61C"/>
<path opacity="0.1" d="M103.112 112.155C100.471 113.553 98.1408 115.417 96.7427 118.524L83.8495 144.466L79.5 153.165L75.1505 144.466L74.0631 141.981L85.8689 118.524C87.1117 115.573 89.5971 113.553 92.2379 112.155C113.519 102.214 127.189 79.534 123.461 53.9029C119.733 29.3592 99.5388 9.63105 74.5291 7.30095C74.3738 7.30095 74.0631 7.30095 73.9078 7.30095C77.7913 6.83494 81.6748 6.99028 85.7136 7.30095C110.723 9.63105 130.917 29.2039 134.646 53.9029C138.063 79.534 124.393 102.214 103.112 112.155Z" fill="black"/>
<path d="M75.6165 73.6309C75.1505 73.6309 74.8398 73.4755 74.5291 73.1649L65.2088 63.8445C64.5874 63.2231 64.5874 62.2911 65.2088 61.6697C65.8301 61.0484 66.7622 61.0484 67.3835 61.6697L75.6165 69.9027L91.4612 54.0581C92.0825 53.4367 93.0146 53.4367 93.6359 54.0581C94.2573 54.6794 94.2573 55.6115 93.6359 56.2328L76.7039 73.1649C76.5486 73.4755 76.0825 73.6309 75.6165 73.6309Z" fill="#66C61C"/>
<path fill-rule="evenodd" clip-rule="evenodd" d="M74.5291 73.165C74.8398 73.4756 75.1505 73.631 75.6165 73.631C76.0825 73.631 76.5485 73.4756 76.7039 73.165L93.6359 56.2329C94.2573 55.6116 94.2573 54.6795 93.6359 54.0582C93.0146 53.4368 92.0825 53.4368 91.4612 54.0582L75.6165 69.9028L67.3835 61.6698C66.7621 61.0485 65.8301 61.0485 65.2087 61.6698C64.5874 62.2912 64.5874 63.2232 65.2087 63.8446L74.5291 73.165ZM75.6165 65.5092L69.5803 59.473C67.7457 57.6383 64.8465 57.6383 63.0119 59.473C61.1773 61.3076 61.1773 64.2068 63.0119 66.0414L72.3323 75.3618C72.671 75.7005 73.1332 76.0781 73.7528 76.3535C74.3858 76.6348 75.021 76.7378 75.6165 76.7378C76.165 76.7378 76.802 76.6505 77.4306 76.3991C77.8985 76.2119 78.5724 75.8444 79.1019 75.1606L95.8328 58.4298C97.6674 56.5951 97.6674 53.696 95.8328 51.8613C93.9981 50.0267 91.099 50.0267 89.2643 51.8613L75.6165 65.5092Z" fill="#66C61C"/>
<defs>
<filter id="filter0_d_11805_22296" x="20.6667" y="56" width="117.333" height="117.333" filterUnits="userSpaceOnUse" color-interpolation-filters="sRGB">
<feFlood flood-opacity="0" result="BackgroundImageFix"/>
<feColorMatrix in="SourceAlpha" type="matrix" values="0 0 0 0 0 0 0 0 0 0 0 0 0 0 0 0 0 0 127 0" result="hardAlpha"/>
<feMorphology radius="8" operator="dilate" in="SourceAlpha" result="effect1_dropShadow_11805_22296"/>
<feOffset dy="8"/>
<feGaussianBlur stdDeviation="12"/>
<feColorMatrix type="matrix" values="0 0 0 0 0 0 0 0 0 0 0 0 0 0 0 0 0 0 0.12 0"/>
<feBlend mode="normal" in2="BackgroundImageFix" result="effect1_dropShadow_11805_22296"/>
<feBlend mode="normal" in="SourceGraphic" in2="effect1_dropShadow_11805_22296" result="shape"/>
</filter>
</defs>
</svg>
