<svg width="40" height="40" viewBox="0 0 40 40" fill="none" xmlns="http://www.w3.org/2000/svg">
<path fill-rule="evenodd" clip-rule="evenodd" d="M28.6701 15.9697L28.6709 15.9746C29.2912 20.2395 27.0132 23.9948 23.4849 25.679C23.2071 25.8285 23.0532 25.9766 22.9597 26.1844C22.9538 26.1974 22.9477 26.2101 22.9413 26.2228L20.9861 30.0868L20.9841 30.0908L20.3336 31.3916C20.1747 31.7095 19.8487 31.9094 19.4933 31.9068C19.1379 31.9042 18.8148 31.6997 18.6604 31.3796L18.0337 30.0797L16.1083 26.2057C15.981 25.9701 15.7845 25.7968 15.6267 25.7318C15.6095 25.7247 15.5926 25.7172 15.576 25.7091C12.4853 24.2153 10.2495 21.0628 10.2495 17.3437C10.2495 11.9031 14.9633 7.57481 20.5042 8.1913C24.6631 8.58519 28.0487 11.8523 28.6701 15.9697Z" fill="white"/>
<path fill-rule="evenodd" clip-rule="evenodd" d="M23.0651 24.8466C26.2573 23.3321 28.3078 19.9534 27.7486 16.1088C27.1893 12.4039 24.1369 9.46798 20.4088 9.11847C15.4224 8.55925 11.1816 12.4505 11.1816 17.3437C11.1816 20.6758 13.1855 23.5185 15.9816 24.8699C16.3777 25.033 16.7272 25.3825 16.9369 25.7787L18.8709 29.6699L19.5 30.9748L20.1525 29.6699L22.1097 25.802C22.3194 25.3359 22.669 25.0563 23.0651 24.8466ZM19.5 21.8175C21.8534 21.8175 23.7874 19.9068 23.7874 17.5301C23.7874 15.1767 21.8767 13.2427 19.5 13.2427C17.1466 13.2427 15.2126 15.1534 15.2126 17.5301C15.2126 19.8835 17.1233 21.8175 19.5 21.8175Z" fill="#66C61C"/>
<path opacity="0.1" d="M23.0418 24.8233C22.6457 25.033 22.2961 25.3126 22.0864 25.7786L20.1525 29.6699L19.5 30.9748L18.8476 29.6699L18.6845 29.2971L20.4554 25.7786C20.6418 25.3359 21.0146 25.033 21.4107 24.8233C24.6029 23.332 26.6534 19.9301 26.0942 16.0854C25.535 12.4039 22.5059 9.44466 18.7544 9.09514C18.7311 9.09514 18.6845 9.09514 18.6612 9.09514C19.2437 9.02524 19.8262 9.04854 20.4321 9.09514C24.1835 9.44466 27.2127 12.3806 27.7719 16.0854C28.2845 19.9301 26.234 23.332 23.0418 24.8233Z" fill="black"/>
<path d="M18.9175 19.0446C18.8476 19.0446 18.801 19.0213 18.7544 18.9747L17.3563 17.5767C17.2631 17.4835 17.2631 17.3437 17.3563 17.2505C17.4495 17.1573 17.5894 17.1573 17.6826 17.2505L18.9175 18.4854L21.2942 16.1087C21.3874 16.0155 21.5272 16.0155 21.6204 16.1087C21.7136 16.2019 21.7136 16.3417 21.6204 16.4349L19.0806 18.9747C19.0573 19.0213 18.9874 19.0446 18.9175 19.0446Z" fill="#66C61C"/>
<path fill-rule="evenodd" clip-rule="evenodd" d="M18.7544 18.9748C18.801 19.0214 18.8476 19.0447 18.9175 19.0447C18.9874 19.0447 19.0573 19.0214 19.0806 18.9748L21.6204 16.435C21.7136 16.3417 21.7136 16.2019 21.6204 16.1087C21.5272 16.0155 21.3874 16.0155 21.2942 16.1087L18.9175 18.4854L17.6825 17.2505C17.5893 17.1573 17.4495 17.1573 17.3563 17.2505C17.2631 17.3437 17.2631 17.4835 17.3563 17.5767L18.7544 18.9748ZM18.9175 17.8264L18.012 16.921C17.7368 16.6458 17.302 16.6458 17.0268 16.921C16.7516 17.1962 16.7516 17.631 17.0268 17.9062L18.4248 19.3043C18.4756 19.3551 18.545 19.4117 18.6379 19.453C18.7329 19.4952 18.8281 19.5107 18.9175 19.5107C18.9997 19.5107 19.0953 19.4976 19.1896 19.4599C19.2598 19.4318 19.3608 19.3767 19.4403 19.2741L21.9499 16.7645C22.2251 16.4893 22.2251 16.0544 21.9499 15.7792C21.6747 15.504 21.2398 15.504 20.9646 15.7792L18.9175 17.8264Z" fill="#66C61C"/>
</svg>
