<svg width="56" height="56" viewBox="0 0 56 56" fill="none" xmlns="http://www.w3.org/2000/svg">
<path fill-rule="evenodd" clip-rule="evenodd" d="M28 43C23.85 43 20.3125 41.5375 17.3875 38.6125C14.4625 35.6875 13 32.15 13 28C13 23.9 14.45 20.375 17.35 17.425C20.25 14.475 23.8 13 28 13C32.15 13 35.6875 14.4625 38.6125 17.3875C41.5375 20.3125 43 23.85 43 28C43 32.15 41.5375 35.6875 38.6125 38.6125C35.6875 41.5375 32.15 43 28 43ZM27.0251 31.401H30.0251V19H27.0251V31.401ZM28.5251 37C28.9251 37 29.2751 36.85 29.5751 36.55C29.8751 36.25 30.0251 35.9 30.0251 35.5C30.0251 35.1 29.8751 34.75 29.5751 34.45C29.2751 34.15 28.9251 34 28.5251 34C28.1251 34 27.7751 34.15 27.4751 34.45C27.1751 34.75 27.0251 35.1 27.0251 35.5C27.0251 35.9 27.1751 36.25 27.4751 36.55C27.7751 36.85 28.1251 37 28.5251 37Z" fill="white"/>
</svg>
