<svg width="56" height="56" viewBox="0 0 56 56" fill="none" xmlns="http://www.w3.org/2000/svg">
<path d="M24.8901 38.617C24.7435 37.8785 24.6667 37.1149 24.6667 36.3333C24.6667 32.0835 26.939 28.3643 30.3351 26.3247L30.5 25.5C30.6434 25.6654 30.7913 25.8266 30.9436 25.9835C32.1181 25.3707 33.4098 24.9519 34.7764 24.7697C33.8471 24.0958 33.0883 23.2837 32.5 22.3333L30.8333 19.6667C30.5278 19.1667 30.125 18.7639 29.625 18.4583C29.125 18.1528 28.5833 18 28 18C27.6111 18 27.1875 18.0625 26.7292 18.1875C26.2708 18.3125 25.5556 18.5833 24.5833 19L18 21.8333V29.6667H21.3333V24L24.3333 22.8333L21.6667 36.3333L13.6667 34.6667L13 38L24.5 40.3333L24.8901 38.617Z" fill="white"/>
<path d="M28.1458 16.1875C28.7986 16.8403 29.5833 17.1667 30.5 17.1667C31.4167 17.1667 32.2014 16.8403 32.8542 16.1875C33.5069 15.5347 33.8333 14.75 33.8333 13.8333C33.8333 12.9167 33.5069 12.1319 32.8542 11.4792C32.2014 10.8264 31.4167 10.5 30.5 10.5C29.5833 10.5 28.7986 10.8264 28.1458 11.4792C27.4931 12.1319 27.1667 12.9167 27.1667 13.8333C27.1667 14.75 27.4931 15.5347 28.1458 16.1875Z" fill="white"/>
<path fill-rule="evenodd" clip-rule="evenodd" d="M36.3333 44.6667C34.0278 44.6667 32.0625 43.8542 30.4375 42.2292C28.8125 40.6042 28 38.6389 28 36.3333C28 34.0556 28.8056 32.0972 30.4167 30.4583C32.0278 28.8194 34 28 36.3333 28C38.6389 28 40.6042 28.8125 42.2292 30.4375C43.8542 32.0625 44.6667 34.0278 44.6667 36.3333C44.6667 38.6389 43.8542 40.6042 42.2292 42.2292C40.6042 43.8542 38.6389 44.6667 36.3333 44.6667ZM35.7917 38.2228H37.4584V31.3333H35.7917V38.2228ZM36.6251 41.3333C36.8473 41.3333 37.0417 41.25 37.2084 41.0833C37.3751 40.9167 37.4584 40.7222 37.4584 40.5C37.4584 40.2778 37.3751 40.0833 37.2084 39.9167C37.0417 39.75 36.8473 39.6667 36.6251 39.6667C36.4029 39.6667 36.2084 39.75 36.0417 39.9167C35.8751 40.0833 35.7917 40.2778 35.7917 40.5C35.7917 40.7222 35.8751 40.9167 36.0417 41.0833C36.2084 41.25 36.4029 41.3333 36.6251 41.3333Z" fill="white"/>
</svg>
