<svg width="56" height="56" viewBox="0 0 56 56" fill="none" xmlns="http://www.w3.org/2000/svg">
<path d="M11.3333 29.6666L14.8333 19.6666C15 19.1666 15.2986 18.7639 15.7292 18.4583C16.1597 18.1528 16.6389 18 17.1667 18H24.7917C24.7083 18.5555 24.6667 19.1111 24.6667 19.6666C24.6667 20.2222 24.7083 20.7778 24.7917 21.3333H17.75L16 26.3333H26.7917C27.2639 27 27.7917 27.618 28.375 28.1875C28.9583 28.7569 29.6111 29.25 30.3333 29.6666H14.6667V38H38V31.2083C38.5833 31.125 39.1528 31 39.7083 30.8333C40.2639 30.6666 40.8056 30.4583 41.3333 30.2083V43C41.3333 43.4722 41.1736 43.868 40.8542 44.1875C40.5347 44.5069 40.1389 44.6666 39.6667 44.6666H38C37.5278 44.6666 37.132 44.5069 36.8125 44.1875C36.4931 43.868 36.3333 43.4722 36.3333 43V41.3333H16.3333V43C16.3333 43.4722 16.1736 43.868 15.8542 44.1875C15.5347 44.5069 15.1389 44.6666 14.6667 44.6666H13C12.5278 44.6666 12.132 44.5069 11.8125 44.1875C11.4931 43.868 11.3333 43.4722 11.3333 43V29.6666ZM33.8333 36.3333C34.5278 36.3333 35.1181 36.0903 35.6042 35.6041C36.0903 35.118 36.3333 34.5278 36.3333 33.8333C36.3333 33.1389 36.0903 32.5486 35.6042 32.0625C35.1181 31.5764 34.5278 31.3333 33.8333 31.3333C33.1389 31.3333 32.5486 31.5764 32.0625 32.0625C31.5764 32.5486 31.3333 33.1389 31.3333 33.8333C31.3333 34.5278 31.5764 35.118 32.0625 35.6041C32.5486 36.0903 33.1389 36.3333 33.8333 36.3333ZM18.8333 36.3333C19.5278 36.3333 20.1181 36.0903 20.6042 35.6041C21.0903 35.118 21.3333 34.5278 21.3333 33.8333C21.3333 33.1389 21.0903 32.5486 20.6042 32.0625C20.1181 31.5764 19.5278 31.3333 18.8333 31.3333C18.1389 31.3333 17.5486 31.5764 17.0625 32.0625C16.5764 32.5486 16.3333 33.1389 16.3333 33.8333C16.3333 34.5278 16.5764 35.118 17.0625 35.6041C17.5486 36.0903 18.1389 36.3333 18.8333 36.3333ZM36.3333 28C34.0278 28 32.0625 27.1875 30.4375 25.5625C28.8125 23.9375 28 21.9722 28 19.6666C28 17.3889 28.8056 15.4305 30.4167 13.7916C32.0278 12.1528 34 11.3333 36.3333 11.3333C38.6389 11.3333 40.6042 12.1458 42.2292 13.7708C43.8542 15.3958 44.6667 17.3611 44.6667 19.6666C44.6667 21.9722 43.8542 23.9375 42.2292 25.5625C40.6042 27.1875 38.6389 28 36.3333 28ZM35.5 21.3333H37.1667V14.6666H35.5V21.3333ZM36.3333 24.6666C36.5556 24.6666 36.75 24.5833 36.9167 24.4166C37.0833 24.25 37.1667 24.0555 37.1667 23.8333C37.1667 23.6111 37.0833 23.4166 36.9167 23.25C36.75 23.0833 36.5556 23 36.3333 23C36.1111 23 35.9167 23.0833 35.75 23.25C35.5833 23.4166 35.5 23.6111 35.5 23.8333C35.5 24.0555 35.5833 24.25 35.75 24.4166C35.9167 24.5833 36.1111 24.6666 36.3333 24.6666Z" fill="white"/>
</svg>
