<svg width="56" height="56" viewBox="0 0 56 56" fill="none" xmlns="http://www.w3.org/2000/svg">
<path d="M18 16.3333L16.3334 19.6666H18L21.3334 16.3333V18H26.3334L28 14.6666V13C28 12.5278 27.8403 12.1319 27.5209 11.8125C27.2014 11.493 26.8056 11.3333 26.3334 11.3333H16.3334V14.6666H18V16.3333Z" fill="white"/>
<path d="M14.6667 33.25V44.6666H24.835C22.6741 42.5491 21.3334 39.5978 21.3334 36.3333C21.3334 31.6793 24.0584 27.6618 28 25.7894V23C28 22.4722 27.8195 21.8819 27.4584 21.2291C27.0972 20.5764 26.7222 20.0555 26.3334 19.6666H21.3334L15.1667 31.3333C15.0278 31.6111 14.9097 31.9236 14.8125 32.2708C14.7153 32.618 14.6667 32.9444 14.6667 33.25Z" fill="white"/>
<path fill-rule="evenodd" clip-rule="evenodd" d="M33 44.6666C30.6945 44.6666 28.7292 43.8541 27.1042 42.2291C25.4792 40.6041 24.6667 38.6389 24.6667 36.3333C24.6667 34.0555 25.4722 32.0972 27.0834 30.4583C28.6945 28.8194 30.6667 28 33 28C35.3056 28 37.2709 28.8125 38.8959 30.4375C40.5209 32.0625 41.3334 34.0278 41.3334 36.3333C41.3334 38.6389 40.5209 40.6041 38.8959 42.2291C37.2709 43.8541 35.3056 44.6666 33 44.6666ZM32.4584 38.2228H34.1251V31.3333H32.4584V38.2228ZM33.2918 41.3333C33.514 41.3333 33.7084 41.25 33.8751 41.0833C34.0418 40.9166 34.1251 40.7222 34.1251 40.5C34.1251 40.2778 34.0418 40.0833 33.8751 39.9166C33.7084 39.75 33.514 39.6666 33.2918 39.6666C33.0695 39.6666 32.8751 39.75 32.7084 39.9166C32.5418 40.0833 32.4584 40.2778 32.4584 40.5C32.4584 40.7222 32.5418 40.9166 32.7084 41.0833C32.8751 41.25 33.0695 41.3333 33.2918 41.3333Z" fill="white"/>
</svg>
